<?xml version="1.0" encoding="utf-8"?>
<!-- Generator: Adobe Illustrator 23.0.0, SVG Export Plug-In . SVG Version: 6.00 Build 0)  -->
<svg version="1.1" id="레이어_1" xmlns="http://www.w3.org/2000/svg" xmlns:xlink="http://www.w3.org/1999/xlink" x="0px"
	 y="0px" viewBox="0 0 595.3 914" style="enable-background:new 0 0 595.3 914;" xml:space="preserve">
<style type="text/css">
	.st0{fill:none;stroke:#BCBCBC;stroke-width:0.75;stroke-miterlimit:10;}
</style>
<g>
	<g>
		<path class="st0" d="M484.5,38.8c-1.6,0.8-1.4,3.8-2.9,2.7c-2.2-1.6-0.5-3.8-5.7-5.5c-1.4-0.5-4,0.2-4,0.7s-2.1,0.6-3.3-1.4
			c-1.3-1.9,1.1,3.5-0.1,5.8s-4.3,3.3-4.8,5.1s-0.7,4.9-1.8,4.9c-1.1,0,0.6-6.3-1.6-6.3s-6.3,6.6-6.7,8.1c-0.4,1.5-0.1,2-1.2,2.4
			c-1.1,0.4,0.2,2.1-0.4,2.6c-0.6,0.6-1.8-0.9-3.1-0.9s-3.2,1.7-3.9,5.6s-2.8,1-3.6,1.7c-0.8,0.8-0.3,5.4-1.7,7.4
			c-1.4,2.1-4,2.2-5.1,3.3c-1.2,1.2-0.3,6.7-2.9,10.1c-1.1,1.5-2.2-0.8-3.5,0c-1.6,1-3.6,5.2-6.1,10.4c-1.7,3.6-4.5,10.2-4.5,12.4
			s4.3,10.1,9.8,12.2c3.3,1.3-2.7,9-3.8,11.7c-0.7,1.6-0.5,11.7,0.1,12.2s1.9,2.3,0,4.2c-1.9,1.9,2.5,8.3,2.9,10.3
			c0.4,2.1-1.2,8.7-2.3,9.8c-1,1-8,0.4-14,3c-6,2.6-14.3,8.9-14.7,11.9s-3.8-8.3-10.1,10.3c-2.2,6.5-4.9,7.9-7.6,8.7
			c0,0-0.3-7,1.1-8.4c1.4-1.4,0.3-8.7-0.7-9.7s-3.8-3.5-3.8-6s-1.6-6.3-2.3-7s-0.1-8.8,1.2-10s4.4-12.1,3-13.5
			c-1.4-1.4-2.7-2.8-4.3-2.8c-1.7,0-3.5-3-4.8-4.3c-1.3-1.3-3.8,0-6,0c-2.2,0-4.3-5.3-4.3-7c0-1.7,1.2-2.8,1.2-4.3s-7.2-9.5-8.5-9.5
			s-0.5-9.2-0.5-11s3.5-7.8,1.2-11.8c-2.3-4-6.6-4.1-7.7-5.2c-1.1-1.1-2-6.5-3.8-6.5c-1.8,0-7-1.8-7.8-1.8c-0.8,0-11.8-4-13.8-6
			s-2.8-9.8-4.3-11.3s-3.3-2-3.3-2c1.1-1.1,2.6-1.3,3.1-1.3s13.4-1.4,15.5-1.1c2.1,0.4,9,1.7,13.3,0.9s5.9-2,8.3-2
			c2.4,0,4.2-1.7,5.7-1.7s5.4,0.4,6.6,0.8c2.6,0.9,4.8,1.3,5.8,0c1-1.4,0.7-4.5,3.5-4.5c5.3,0,3.9-4.2,5.9-4.2s2-0.7,3.2-0.7
			s1-1.1,2.2-1.1c1.2,0,1.3-1.4,1.5-1.7s0-3.9,0.5-4.4s2.1-1.7,1.3-2.6c-0.9-0.9-2-1.7-2-2.3c0-0.7,2.5-1.7,3-2.2s0.3-4.8,1.3-4.8
			s4.6-4.9,6.2-6.4c1.5-1.5,6-1.7,8.7-0.9c2.7,0.8,6,5.3,8.3,4.4c0,0,0.5-3.3,3.2-4.3c2.7-1,2.5,2.5,5.8,0.7
			c3.3-1.8,0.4-8.9,1.7-10.2s0-10,1.2-10s2.5-28.5,11.8-31.3c3.5-1.1,4.5,3.4,6.7,2.7c5.3-1.7,8-1.3,9,5.5c0.7,5,13.7-4.9,8.3,8.5
			c-1.7,4.2,1.3,1.2,1.3,2.8s-0.9,7.6,5.5,14c1.6,1.6,4.2,2.5,7.8-1.2c3.7-3.7,2.7,9.2,4.3,9.2c1.7,0,2.7,2.7,2.7,7.8
			c0,5.2,5.7,0.7,6.7,5.8c1,5.2-1.8-0.5,0.2,7.7C488,38,485.8,38.1,484.5,38.8z"/>
		<path class="st0" d="M403.9,500.6c-2,0-5.8,2.3-7.7,4.2c-1.9,1.9-0.6,4.6-3.6,4.3c-3.1-0.3-3.8-3.2-6.1-3.2
			c-2.3,0-5.6,3.2-7.3,3.2s-1.6-0.8-3.8-2c-2.2-1.2-4.9,0.6-6.4-0.2s-0.6-6-4.6-5.3c-4,0.7-3.2,6.4-3.9,7.1
			c-0.7,0.7-1.8,2.3-6.3,1.3c-4.4-1.1-3.6-4.3-7.6-6.4s-7.4,1.8-11-1.9c-3.6-3.6-5.7,3.6-9.3,0c-3.6-3.6,9-8.4,1.8-7.6
			c-7.3,0.8-7.5-5.3-8.4-2.1c-0.9,3.1-4,0.9-5.6,0.9s-2.3,3.5-3.9,3.5c-1.6,0-5.9-6.9-7.2-6.9c-1.4,0-3.5,2.5-3.5,6.2
			c0,3.7-5.9,3-9.6,3s-5.2-6-5.2-6s0.7-0.8,1.8-1.8c1.1-1.1-1.3-7.9,0.4-9.6c1.7-1.7,2.3-5.8,3.1-7.3c0.8-1.6-0.6-3.2-1.1-3.7
			c-0.5-0.5-0.4-3.2,0.2-4.4c0.6-1.3,2.5-0.8,3.1-1.3c0.5-0.5,1.5-4.3-0.8-4.3c-2.3,0-3.5-1.3-4.7-1.3s-3.4,1-4.3,0s-2-3.4-3.8-3.9
			s-5.3-0.1-6.1-0.9c-0.8-0.8,0.3-5.3-0.3-5.3c-0.7,0-1-2.8-0.3-3.5c0.7-0.7,1.8-5.3,0.8-5.3c-1.1,0-0.8-1.2-0.8-3.3s4.2-3,5.2-4
			s0.9-3.4,0-4.3c-0.9-0.9-2.8-1.7-3.5-1.7c-0.7,0-1.3-2.6-2.3-3.7c-1.1-1.1-2.7,0-3.7-1s1.3-8-1.7-8.8s-9.8,0.2-9.8-1.5
			s-1.2-5-2.8-5s-4.3,2.3-4.3,0s-1.3-5.3-4-6.3c-1.3-0.5-2.9-0.3-4.4,0.1c1.4-3.4,2.8-5.1,12.2-5.1c2.2,0,1.7-2.2,4.1-2.2
			c6.2,0,14.9,0.2,20.8-0.4c4.4-0.4,6.5-2,8.7-0.6c10.1,6.5,15.9,2.6,20.5,3.2c4.6,0.6,4.6,0.1,9.4-4.6s7.3-10.7,8.3-15.2
			s6.3-7.3,6.3-7.3c0.4,0.4,3.9,4.4,4.3,10.2c0.4,5.8,5.4,4.8,7.6,13.8c2.2,8.9,6.1,13.1,6.9,14.8c0.9,1.6,0.7,9,8,14.1
			c7.3,5.1,10.4,19.4,12,19.8c1.6,0.4,8.8,8,10.1,11s0.4,5.3,3.5,6.9c3.1,1.6,5.3,13.9,7.3,14.9s5.7,3,5.7,9.8
			c0,1.3,5.3,5.5,6.2,8.2c0.9,2.7,0.1,7.3,1.1,7.3C403.7,498.8,403.8,499.6,403.9,500.6z"/>
		<path class="st0" d="M351.8,508.9c-1.4,0.4-2.1-1.3-4.1-0.7c-2.1,0.6-3.1,3.4-3.6,4.5c-0.5,1.1-6.3,5.3-7.6,7.3
			c-1.3,2.1,0.6,6.4-0.7,7.7c-1.3,1.3-5.4,2.5-6.8,2.5c-1.4,0-3.2-4.6-4.4-5.2c-1.2-0.6-5.3,0.1-4.8,1.6c0.4,1.5-0.1,2.5-1.4,2.5
			s-2.1-1.9-3.3-2.3c-1.3-0.4-1.8,0.7-2.3,1.3s-2.6-0.4-4.7,1.7c-2.1,2.1-0.6,4.6,0.7,6c1.4,1.4,1.2,3-0.3,3.4s-2.6-2.1-4.6-2.4
			c-1.9-0.4-5.8,1.4-7.2,2c-1.4,0.6,0,2.3,1.6,2.9c1.6,0.6,3.2,2.3,3.2,3.2c0,0.9-0.6,1.4-1.9,1.4c-1.3,0-2.3-2-3.4-2
			s-2.9,2.7-3.3,3s-4.1-0.2-4.6,0.9c-0.5,1.1-0.3,0.6,3.5,2.3c3.8,1.6,5.1,5.9,5.1,6.6s-1.5,1.3-2,1.8c-0.5,0.5-0.1,8.3-0.1,10.1
			c0,1.8-0.5,2.5-0.9,3c-0.5,0.5-1.6,2-1.3,3.1c0.3,1.1,2.4,0.4,3.3,0.4c0.8,0,1.5-1.4,2.5-1c1,0.4,1.9,2.9,2.8,3.8
			c0.8,0.8,0.7,0,1.3-0.6s2.5-0.4,3.7-0.4c1.2,0,1.7,5.8,0.4,6.1c-1.3,0.3-3.4,4.9-3.4,5.9c0,1.1-2.7,3.5-3.1,3.9
			c-0.4,0.4-0.4,2.9-1.7,2.9c-1.2,0-1.5,1.8-2.5,1.8c-1,0-1.8,0.6-4.4,1.3s-8.1,0.3-13.4-4.5c-0.2-0.2-0.3-0.3-0.5-0.5
			c-4.7-4.7-2.4-10-2.8-11.5c-0.4-1.5-6-3.3-7.4-3.3c-1.4,0-2.6-5.1,1.4-9.7c4.1-4.6,1.8-5.6-2.2-7c-2.2-0.8-4.9-3-6.9-4.8
			c-1.5-1.4-2.7-2.7-2.9-2.8c-0.4-0.4-0.7-4.8-1.2-5.3c-0.5-0.5,0.7-3.8,0-4.5c-0.7-0.7-2.8,0.8-3.6,0c-0.8-0.8-0.2-3.4,0.2-5.5
			c0.4-2.1,4.1-4.9,6.6-4.9s2.8-0.8,2.8-1.9s-6.6-6.8-7.4-7.6s-0.3-1.8-0.7-3c-0.4-1.3-3.1-3.9-3.1-3.9c0.8,0,6.8-0.6,7.8-2.3
			c0.9-1.7,2.6-6.7,6.3-6.7s6.2-1,6.2-1c2.5-0.6,6.5-5.2,6.5-5.7s2.4-2.5,2.4-3.3c0-0.8,3.8-3,3.8-4s1.4-2.6,1.4-2.6s1.4,6,5.2,6
			s9.6,0.7,9.6-3c0-3.7,2.1-6.2,3.5-6.2c1.4,0,5.6,6.9,7.2,6.9c1.6,0,2.3-3.5,3.9-3.5s4.8,2.3,5.6-0.9c0.9-3.1,1.1,2.9,8.4,2.1
			c7.3-0.8-5.3,4-1.8,7.6c3.6,3.6,5.6-3.6,9.3,0c3.6,3.6,7-0.2,11,1.9C349.6,505.2,349.9,507.4,351.8,508.9z"/>
		<path class="st0" d="M288,724.3c-0.3-0.3,0.4-1.5-0.8-2.1c-1.2-0.6,0.4-4.9-1-5.6c-1.3-0.7,0.1-6.7-0.8-7c-1.8-0.6-2-2.5-2-3.5
			c0-0.9,3.1-4.6,2-5.7c-1.1-1.1-2.4-0.2-2.8-0.6c-1.1-1.2,1.5-1.8,1.1-3c-0.5-1.3-1.7-0.8-3.2,0c-1.5,0.8-0.2,3-1.2,3
			s-1.9,3.4-2.8,3.2s-6-6.5-6-7s2-3.4,3.4-2c1.4,1.4,1.6,2.8,4.1,1s1.3-7,3.4-5.4c0.9,0.7,2.9,1.5,5.1,2.1
			c0-10.1-10.7-20.3-12.2-21.8c-0.5-0.5-0.9-1.7-1.3-3c-0.8-2.6-1.6-6.1-3.3-7.8c-2.6-2.6-9.2-4.3-9.2-2.9c0,1.4-4.4,4-5.3,4
			c-0.9,0-0.5-1.2-1.7-1.2c-1.3,0-4.5,0.2-5.6-0.9s-7.4-0.6-8.6,0.6c-1.3,1.3-6.6,1-6.6-0.5s1.8-3,0.7-4.2c-1.2-1.2-0.7-2-0.7-4.7
			c0-2.7-3.7-4.2-3.7-2.3s-2.3,4.9-4.2,4.9c-1.8,0-1.8-2.9-3.2-4.4s-2.2-3.7-7.8-2.7c-5.7,1-6.3,6-7,8.8c-0.7,2.8-4.7,6.2-10,5.3
			c-5.3-0.8-5.3-4.3-5.3-7s-4.2-5.1-4.2-5.1c-1.3,1,0.1,4.4-0.4,4.9c-0.5,0.5-2.5-0.7-4,0.3s0.4,4.3-0.5,5.8c-1,1.5-2.2,3.3-1,8.8
			c1.2,5.5,6,9,6.4,9.9c0.4,0.9-1.8,5.3-3.2,5.3c-1.3,0-0.7-3.1-1.3-3.8c-0.6-0.7-2.3-0.1-2.7-0.5c-0.4-0.4,0.3-5.5-0.6-5.5
			c-0.8,0-1.7,2-2.9,0.8c-1.2-1.2-1-0.5-3.6-0.2c-2.6,0.3-1.3,2.2-2.6,2.2s-3.7-0.3-3.4,2.2c0.3,2.5,1.6,2.4,3.1,2.6
			c1.5,0.2,0,3.4,1.6,3.4c1.6,0,1.5-1.7,2.9-2c1.4-0.3,0.5-2.3,1.2-2.2c0.6,0.1,6.4,2.8,5.3,3.3c-1.1,0.5-1.6,3.2-1.6,3.7
			s-2,0.4-2.9,0.7c-0.9,0.3,0.5,1.6,0.5,1.9c0,0.3-0.1,3.3,0.8,3.3s2.7-1.4,3.2-2.7s1.1-1.3,1.9-0.5s-0.2,4.7,0.5,5.4
			c0.7,0.7,1.2,3.9,0.9,4.7c-0.3,0.8-2,2-2.9,2c-0.9,0-2.1,2.4-1.3,3.3c0.9,0.9,1.4,0.4,1.8,0c0.4-0.4,4.2-0.3,5.7-0.3
			c1.5,0,0.6,1.2,1.7,1.3c1,0.2,1.6-1,2.4-1.8s-0.5-7.4,0.4-7.5c2.4-0.4,3,4.5,3,4.9s5.4,0,6.1,0.3c0.6,0.2,1.7,0.7,1.2,1.2
			s-5.5,0.1-6.8,0.3s-2.6,3.6-3.1,4c-0.5,0.5-6.9,0.6-7.5,0.4c-0.7-0.2-1.2-2.2-2-2c-0.8,0.2-0.6,1.7-0.9,2s-1,0-1,0.5
			c0,1.8,4.4,1.2,5.5,1.4c1,0.2,0.9,1.1,1.3,1.1s1-1.5,2-1.2s3.3,5.2,4.5,6.3c1.2,1.2,5.7,2.8,3.8,3.8c-1.9,0.9-3.3-1.5-4.8-1.8
			c-1.4-0.3-2.3,1.8-3.2,1.8c-0.9,0-1.4-1.8-2.9-2.7c-1.5-0.9-0.2-3.1-2-4.1c-1.8-1-3-1.4-3,0c0,1.4-1.3,2.1-1.5,2.9
			s1.9,0.8,3.2,0.8s2.8,3.4,3.3,4.3s-0.6,2.1-1.8,2.1s-2.8-2-3.5-2c-0.7,0-3.8-2.2-3.8-5.3s-1.5-7.9-2.9-7.3s-4.3,4.4-3,8.3
			c1.3,3.9,9.2,9.8,10.1,10c0.9,0.3,4.7,1,5.5,0.2c0.8-0.8,3.1-1.8,4-1.2c0.9,0.5,0.4,1.9,0.1,2.8c-0.3,0.9-2.1-0.2-3.9,1.3
			c-1.8,1.5-0.4,3.3-0.1,4.4c0.4,1.1-1.7,2.9-0.8,3.5c0.9,0.6,2.5-0.7,3-0.2c1.1,1.1-0.7,2.2-1.9,3.5c-1.1,1.2-1.4,2.8-0.8,2.8
			c2.1,0,3.5,2.3,3.2,3.2c-0.4,0.9-1.1,2.8,0,2.8c1.1,0,6.6-2.9,7.4-4.1s1.1-4.8,1.6-5.3c1.1-1.1,4.6-2.9,6.8-5.7
			c2.2-2.7,3.4-6,3.4-6.6c0-1.2-1.1-1.2-1.1-1.8c0-0.6,1-3.8,2.1-3.5c1.1,0.3,1.3,7,1,8.9c-0.3,1.8,4.2,6.5,5.1,6.5
			c0.9,0,1-1.2,1.9-1.2c0.9,0,1.9,1.2,2.3,1c1-0.4,2.4-2,2.9-3.8c0.7-2.3,0.3-4.8,1.1-5.1c1.3-0.5,1.4-6,0.6-6.3
			c-0.7-0.3-1.1-0.9-0.9-1.4c0.8-1.5,3.9-1,4.5-1.3c0.6-0.3,5.5-5.1,6.2-5.7c0.7-0.5,4.6,0.5,5.3-0.2c0.7-0.7,2.4-5.6,3.5-5.3
			c1.1,0.3,1.4,2.1,1.8,2.4c0.4,0.3,1.6-1,2.3-0.6c0.6,0.4,0.9,6.5-0.3,7.1s-1.8-1.6-2.5-1.8c-0.6-0.2-2.1,1.3-2.1,1.9
			c0,0.6,2.1,1.5,2.3,2c0.2,0.6-2.3,5.2-3.8,5.3s-1.4-1.4-1.4-1.9s1.1-1.1,1.3-1.6s-0.5-1.8-1-1.8s-3.4,4.6-4.5,6
			c-1.1,1.3,0,2.6,0.1,3.3c0.1,0.7-1.5,0.8-2,1.3c-0.4,0.4,1.1,0.9,1.5,0.9c0.5,0,2.7-1.4,3.1-2c0.4-0.6,1.9-0.7,2.1-0.7
			c2.6,0,1.6,1.8,3.5,1.8c1.9,0,1.9,3.3,2.2,3.6s2.6,2.3,3.1,2.1s0.8-2.3,1.8-2.3c3.2,0,7.7-7,9.6-8c1.8-1,2.9-3.3,2.2-4.8
			c-0.7-1.5-8.3-8.4-8.5-8.6s-0.1-1.2,0.2-1.2c0.3,0,0-7.7,0.6-8.3c0.6-0.6,7.5-0.1,8.6-0.7c1-0.5,1.4-3.6,2.8-3.3
			c1.3,0.3,0,5.1,0.7,5.3s2.3,1.5,2.1,1.6c-0.1,0.1-0.4,2,0.1,2.9c0.5,0.9,0.9,1.5-0.5,2.5s1.1,2.4-0.2,5.9s0.9,1.2,3,2.8
			c2,1.6,1.8,1,1.8,0.6c0-0.3,1.6-0.1,2-0.1c0.4,0-0.5-0.5-0.8-1.3c-0.3-0.9-1.3-0.9-1.6-2.3c-0.3-1.4,1.9-6,3-6
			c1.1,0,1.8,1.4,2.8,1.9c0.9,0.5,2.3-0.6,2.9,0c0.6,0.6,0.7,4.2,0,4.5c-0.7,0.3-0.8,4.9-0.6,6.1s2.4,2,2.7,2.7
			c0.3,0.7,3.3,0.5,3.6,0.2C289,725.1,288.3,724.6,288,724.3z M228.9,676c-0.6,0.6-4.4,2.9-4.4,4c0,1.1-3.1,0.1-4.1-0.9
			s-10.7,0.8-11.6-0.1c-0.9-0.9-5.4-4.5-5.4-9.5s3.4-5.9,5-5.9s4.1,2.6,5.5,2.6c1.5,0,2.1-1.7,5.1-1.7s4,2.3,5,3.2
			c1,1,3.7,0.5,4.9,1.6S229.5,675.3,228.9,676z"/>
		<path class="st0" d="M228.9,676c-0.6,0.6-4.4,2.9-4.4,4c0,1.1-3.1,0.1-4.1-0.9s-10.7,0.8-11.6-0.1c-0.9-0.9-5.4-4.5-5.4-9.5
			s3.4-5.9,5-5.9s4.1,2.6,5.5,2.6c1.5,0,2.1-1.7,5.1-1.7s4,2.3,5,3.2c1,1,3.7,0.5,4.9,1.6S229.5,675.3,228.9,676z"/>
		<path class="st0" d="M295.8,597.5v10.7c-2.5,0.9-14,9.6-16.5,13.5s-2.9,9.6-4.5,11.1c-1.6,1.6-1.6,6.5,0.5,7.6
			c2.1,1.1,2.2,9.4,2.2,11.9s-2,3.8-3.4,6.4s-1.1,8.3-1.1,8.3c-0.8-2.6-1.6-6.1-3.3-7.8c-2.6-2.6-9.2-4.3-9.2-2.9c0,1.4-4.4,4-5.3,4
			c-0.9,0-0.5-1.2-1.7-1.2c-1.3,0-4.5,0.2-5.6-0.9s-7.4-0.6-8.6,0.6c-1.3,1.3-6.6,1-6.6-0.5s1.8-3,0.7-4.2c-1.2-1.2-0.7-2-0.7-4.7
			c0-2.7-3.7-4.2-3.7-2.3s-2.3,4.9-4.2,4.9c-1.8,0-1.8-2.9-3.2-4.4s-2.2-3.7-7.8-2.7c-5.7,1-6.3,6-7,8.8c-0.7,2.8-4.7,6.2-10,5.3
			c-5.3-0.8-5.3-4.3-5.3-7s-4.2-5.1-4.2-5.1c1.3-1,3.3-8.8,5.4-9.8s4.2,0.5,7.6-1c3.5-1.5,5.8,3.1,4.6-1.2c-1.2-4.3-3.1-2.8-3.6-2.3
			c-0.5,0.5-4.6,1.9-7.1,1.2s-5.9-4.3-3.5-7.1c2.4-2.8,6.2-2.3,7.1-2.7c0.9-0.4,1.7-4.2,3.4-4.2s0-5.1,0.7-5.8
			c0.7-0.7,3.1,1.8,3.5,1.8c0.4,0,3.5,0.2,4,0.8s5.8,5,6.3,4.6c0.5-0.5-8.1-10.3-8.1-11.4c0-1.1,5.3-0.6,6.4-0.8
			c1.1-0.2,0.7-2.9,1.4-2.9c0.7,0,1.5,0,1.5-0.3c0-0.4-5.1-1-5.7-0.1c-0.6,0.9-2.1,1.7-3.1,1.7c-1,0-9.9-6-10.5-7.2
			c-0.6-1.2,1.6,0.3,2.5,0.3s3.8-2.3,7.2-2.3c3.4,0,6.8-2.3,6.2-3c0,0,5.3-1.4,6.2-3.8c0.8-2.3,1.2-5.2,3.2-5.2s1.5,0.1,4.1-0.4
			c2.6-0.5,8.4-0.9,11,5.7c0.9,2.3,4.7-1.1,6.6-1.1c1.9,0,3.6,1.4,4.4,0.6c0.8-0.8,1.8-3.3,3.3-3.3s4.7,2.5,4.7,5.2s1.5,6.3,5.4,6.9
			c3.9,0.6,4.6,1.5,5.3-0.3c0.7-1.8,1.3-3.7,2.7-3.7c1.3,0,2.2,2.2,3.8,1.7c1.7-0.5,3.6-3.6,3.6-3.6c0.1,0.2,0.3,0.3,0.5,0.5
			c5.3,4.8,10.8,5.2,13.4,4.5S294.8,597.5,295.8,597.5z"/>
		<path class="st0" d="M277.5,593.8c0,0-2,3.2-3.6,3.6c-1.7,0.5-2.5-1.7-3.8-1.7c-1.3,0-2,1.8-2.7,3.7c-0.7,1.8-1.3,0.9-5.3,0.3
			c-3.9-0.6-5.4-4.3-5.4-6.9s-3.2-5.2-4.7-5.2s-2.5,2.5-3.3,3.3c-0.8,0.8-2.5-0.6-4.4-0.6c-1.9,0-5.7,3.5-6.6,1.1
			c-2.6-6.5-8.4-6.2-11-5.7c-2.6,0.5-2.1,0.4-4.1,0.4s-2.3,2.8-3.2,5.2c-0.8,2.3-6.2,3.8-6.2,3.8c-0.6-0.6-3.8,0.5-5,1
			c-1.2,0.5-5.6-3.6-5.8-4.3c-0.2-0.7,0-5.7-6-5.7c-1.2,0-3.6,0-4.3-0.7c-0.7-0.7,3.7-4.2,5.9-4.7c2.3-0.5-2.8-3.4-2.8-3.5
			c0-0.2,0-2.4,0.2-2.6c0.2-0.2,2-2,2-2.8c0-0.8-4.3-0.9-4.3-1.7c0-0.8,5.3-2.3,5.3-3.6s-4.9-2.3-5.2-4c-0.3-1.6,7.1-5.8,6.8-6.3
			c-0.4-0.4-2.6-0.9-3.3-0.6s-1.9,2.4-2.6,2.7c-0.7,0.3-0.9-3.4-1.2-3.8s-0.5,0.1-0.5-0.6s3.2-1.6,3-2.5c-0.2-1-2.4-1.3-3.1-4.8
			c-0.4-2,2.2-1.6,3-2.2c0.6-0.5-1.6-1.3-1.6-3.5c0-0.6,0.5-0.8,0.8-2.4c0.3-1.6-2.2-1.8-2.2-2.4c0-0.7-0.4-4.6-2-4.6
			c-1.6,0-0.6,5.6-1.3,7c-0.7,1.4-3.1,3.1-4.4,3.1s0.4-8.6-0.5-9.5c-0.9-0.9-4.9,3.4-4.9,4.2c0,0.8,3.2,1.5,3.2,3.8
			c0,1.1-1,1.1-1,1.1s0.6,3-1.2,3.8c-1.8,0.8-0.7-5-1.3-5.7c-0.6-0.7-1.1-4.6-3.2-4.6c-2.1,0-2.3,1.1-2.8,1.6
			c-0.5,0.5-3.7-0.3-3.7-1.3s4-0.3,3-2.9s-3-2.7-3.8-0.8c-0.8,1.9-1.1-1.3-0.6-2.3s-0.3-1.8,0-2.8c0.3-1,1.6-3.4,1.9-3.1
			c0.4,0.4,0.8,3.5,1.1,3.8c0.3,0.3,1.1,1.4,1.4,1c0.4-0.4-0.3-8.9,0.1-9.4c0.5-0.5,2.3-0.5,2.7-0.1c0.4,0.4,0.3,2.3,0.7,2.7
			c0.4,0.4,2.9-1.8,2.3-4.1c-0.3-1.3,0.8-0.6,1.1-0.9c0.3-0.3-1.2-3.6,0.6-4.3c1.8-0.7,1.1,2.7,1.5,3c0.4,0.3,0.9,1.5,0.5,2.3
			c-0.5,0.8-1.7,5.3-1.4,6.1s1.9,2.8,2.4,2.8s-0.6-1.9-0.6-2.5c0-0.7,1-2.5,1.4-2.1s2.6-0.1,2.6-0.6c0-0.4,0-1.9,0.6-2.5
			c0.6-0.6,2,0,2.3-0.4c0.4-0.4-0.9-2.9-1.6-2.9s-3.2-1.6-3.2-2.2c0-0.6,0.9-1.4,0.9-1.8c0-0.4-2-0.8-2-1.2c0-0.4,1.2-1.8,2-1.8
			c0.8,0,1.2,1.1,1.6,1.1c0.4,0,2.9-0.7,3.9,0s-1.5,3.1-1.3,3.6c0.2,0.5,2.4-0.1,2.9,0.3c0.4,0.4,1.1,2.4-0.1,3.9
			c-1.1,1.5-1.7,4.8-1.1,5.1c0.6,0.3,3.4-0.7,3.4-1.3c0-0.6,0.5-6.5,1.5-7s1.8,3.9,2.9,4.2c1.1,0.2-0.7-10.3-3.8-13.4s3,1.7,4.5,3.9
			c1.4,2.2,4.1,5.4,5.2,5.6c1,0.2,2.2-2.5,3.4-2.8s2.1,3.1,2.8,3.7c0.7,0.7,1.8-2.1,2.5-2.1s2.1-0.1,2.7,0.9c0.6,1-1,2-1,2.6
			c0,0.6,0.6,0.4,1.6,1c1,0.6,0.9,2.6,1.3,3c0.3,0.3-0.6,7,1,7.7c1.6,0.8,0.8-2,1.3-2.5c0.4-0.4,1.8-1.3,1.8-1.7
			c0-0.4-1.1-1.8-0.9-2.7c0.2-0.9,3-1.5,4.1-2.6c0.4-0.4,0.5-0.7,0.5-0.9c5.1,0.8,8.6-1.2,10-2.7c1.5-1.5,6.8-0.2,8.5-0.2
			s4.8,3.3,5.7,3.3c0,0,2.8,2.6,3.1,3.9c0.4,1.3-0.1,2.3,0.7,3s7.4,6.4,7.4,7.6s-0.3,1.9-2.8,1.9s-6.1,2.9-6.6,4.9
			c-0.4,2.1-1,4.7-0.2,5.5c0.8,0.8,2.9-0.7,3.6,0c0.7,0.7-0.5,4,0,4.5c0.5,0.5,0.8,4.9,1.2,5.3c0.2,0.2,1.3,1.4,2.9,2.8
			c0,0-6.3,2-7.3,5.7s-4,4.6-4,6.6s0.6,5.1,3.3,6c2.6,0.9-0.1,6.4,0.6,7.1c0.8,0.8,3.4,0.3,3.4-1.9c0-2.1-0.3-3.8,0.8-4.7
			c1-1,2.3,1.2,3.3,2.2c1,1,2,2.1,3.6,2.1c1.6,0,4.1-1.8,4.1-1.8c1.4,0,7,1.8,7.4,3.3C275.2,583.8,272.8,589.2,277.5,593.8z"/>
		<path class="st0" d="M407.8,646.4c-2,0,0.1-7.7-1.7-7.7c-2.3,0-3.7,7.5-3.7,17.7c0,0.4-0.1,0.7-0.4,0.9c0,0-4.9-1.3-7.1-1.3
			c-2.2,0-2.7-1.2-3.4-1.9c-0.7-0.7,0.8-2.8,0-3.7c-1.5-1.5-5.4-0.4-7.1-2.1c-1.7-1.7-1.9-3.2-3.8-4.1c-1.8-0.9-4.1-1.8-4.9-2.7
			c-0.8-0.8,0-3.6,0.8-4.4c0.8-0.8,0.8-2.5,0.8-2.5c0,0,0,0-0.1-0.1c1.4-1.6,4.3-4.8,5.4-4.8c1.4,0,1.8-2.1,2.9-3.3
			c1.1-1.1,8.2-0.3,9.7,1.2s2.6,4.8,3.7,4.8c1.1,0,2.3-3,4.4-3c1.5,0,4.6,1.1,6.1,1.7c-0.1,1.8,0.1,3,0.8,3.7
			C411.6,636.3,409.8,646.4,407.8,646.4z"/>
		<path class="st0" d="M417.3,600.4c-1,7.6-4,20-5.5,23.2c-1.4,3.1-2.1,5.7-2.3,7.7c-1.5-0.6-4.6-1.7-6.1-1.7c-2.1,0-3.3,3-4.4,3
			c-1.1,0-2.2-3.3-3.7-4.8s-8.5-2.3-9.7-1.2c-1.1,1.1-1.5,3.3-2.9,3.3c-1.1,0-4,3.2-5.4,4.8c-1.4-1.1-7.9-0.9-8.9-0.9
			c-1.1,0-1.3,2.2-2.1,3c-0.8,0.8-2.1-0.2-4.3,0.3c-2.2,0.5-2.5,2-3.9,2c-1.4,0-4.6-2-7.7-2c-3.2,0-5.1-0.3-5.1-2.3
			s-4.5-4.3-4.5-4.3c1.1-1.1,0.1-3.1,2-5c1.9-1.9,4.7,0.8,6.7,0.8s4.5-0.8,4.5-3.2s-5.8-5.7-1.3-5.7s4.3-2.4,5-3.2s0.8-4.6,0-5.3
			s0-3.3,0-5.3s-4.5-6-5.9-4.5c-1.4,1.4-4.5,1.5-8.5,1.5s-2.7,3.4-2.7,5.3c0,1.9-0.4,3.2-1.3,2.3c-0.9-0.9-7-4.7-7.8,0
			c-0.8,4.7,7.2,5.1,6.5,8c-0.7,2.8-3.3,0.8-5.7,3.2c-2.3,2.3-0.1,4.6-0.8,5.3s-1.2,0-2,0.8c-0.8,0.8,0.7,3.3,1.5,4.2
			c0.8,0.8,0.5,3.2,0,3.7c-0.1,0.1-0.3,0.1-0.5,0c-1.4-0.4-4.9-2.7-7.3-2.7c-2.8,0-6.8,2.8-6.8,0s2.8-4,2.8-5.8
			c0-1.8-3.9-5.6-5.5-7.2c-1.6-1.6-6-2.5-9.7-2.5c-3.7,0-8.2-7-8.2-7v-10.7c1,0,1.2-1.8,2.5-1.8c1.3,0,1.3-2.5,1.7-2.9
			c0.4-0.4,3.1-2.8,3.1-3.9c0-1.1,2.2-5.6,3.4-5.9c1.3-0.3,0.8-6.1-0.4-6.1c-1.2,0-3.2-0.1-3.7,0.4s-0.4,1.4-1.3,0.6
			c-0.9-0.8-1.8-3.4-2.8-3.8c-1-0.4-1.7,1-2.5,1c-0.8,0-2.9,0.7-3.3-0.4c-0.3-1.1,0.8-2.6,1.3-3.1c0.5-0.5,0.9-1.2,0.9-3
			c0-1.8-0.3-9.6,0.1-10.1c0.5-0.5,2-1.1,2-1.8s-1.3-4.9-5.1-6.6c-3.8-1.6-4-1.1-3.5-2.3c0.5-1.1,4.2-0.6,4.6-0.9s2.1-3,3.3-3
			s2.1,2,3.4,2c1.3,0,1.9-0.4,1.9-1.4c0-0.9-1.6-2.6-3.2-3.2c-1.6-0.6-3-2.3-1.6-2.9c1.4-0.6,5.3-2.4,7.2-2c1.9,0.4,3.1,2.8,4.6,2.4
			s1.7-2,0.3-3.4c-1.4-1.4-2.9-3.9-0.7-6c2.1-2.1,4.1-1.2,4.7-1.7c0.5-0.5,1.1-1.6,2.3-1.3c1.2,0.4,2,2.3,3.3,2.3s1.9-1,1.4-2.5
			c-0.4-1.5,3.6-2.2,4.8-1.6c1.2,0.6,3,5.2,4.4,5.2c1.4,0,5.6-1.3,6.8-2.5c1.3-1.3-0.6-5.6,0.7-7.7c1.3-2.1,7.1-6.2,7.6-7.3
			c0.5-1.1,1.6-3.9,3.6-4.5c2.1-0.6,2.7,1.1,4.1,0.7c0.6,0.5,1.4,0.9,2.5,1.2c4.4,1.1,5.5-0.5,6.3-1.3c0.7-0.7-0.1-6.4,3.9-7.1
			c4-0.7,3.1,4.6,4.6,5.3s4.2-1,6.4,0.2c2.2,1.2,2,2,3.8,2s5-3.2,7.3-3.2c2.3,0,3,2.9,6.1,3.2c3.1,0.3,1.7-2.4,3.6-4.3
			c1.9-1.9,5.7-4.2,7.7-4.2c0.2,1.8,0.5,4.3,2.5,4.9c3.1,1.1-1.1,22.8,4.1,26.7c5.2,3.9-7.8,13.4-4.5,16.6c3.3,3.3,3.2,4.3,1.7,5.8
			c-1.5,1.5,1.2,7.7-2.6,13.5c-1.3,2.1-0.8,4.5-1.1,6.9c-0.4,4.3-0.6,8.3,0.8,10.1c2.2,2.7,2.4,7.8-1.3,9.7c-1.8,0.9-0.6,2.6,2,2.9
			c2.7,0.4,6.5-0.8,10.6-4.8C417.1,592.1,418.1,594.2,417.3,600.4z"/>
		<path class="st0" d="M402.1,657.3c-1.2,1.1-4.9,0.8-6.4,3.6c-1.8,3.3-0.1,8.9-3.8,12.7s-4.8-0.3-6.9,6s-1.4,4.5-2.3,4.5
			c-0.9,0-1.9-3.6-3.7-3.6s-1.2,4.3-3.2,4.3s-1.2-4.3-0.3-5.2s-1.3-3.3-2.1-2.4c-0.8,0.8-2,3.3-3,4.3s-0.9-2.7-2.1-2.7
			c-1.2,0-0.8,1.7-4.3,1.3c-1.5-0.2-3.3-0.2-4.9-0.3c0,0-3.3-2.6-2.5-4.9c0.7-2.3,4.6-1.4,6.7-2c2.1-0.6,1.9-2.6,3-2.6
			c1.1,0,1.6-1.4,4.1-2.5s4.9,0.1,6-2.4s-1.7-3.4-0.9-5.4c0.8-2,3.1,0,4.4,0s-0.1-3.3,1.3-4.6c1.3-1.3,4,1,5.6,1
			c1.6,0,4.8-2.3,4.8-2.3c0.7,0.7,1.3,1.9,3.4,1.9C397.1,656.1,402.1,657.3,402.1,657.3z"/>
		<path class="st0" d="M391.5,654.2c0,0-3.2,2.3-4.8,2.3c-1.6,0-4.3-2.3-5.6-1c-1.3,1.3,0.1,4.6-1.3,4.6s-3.6-2-4.4,0
			s2.1,2.9,0.9,5.4s-3.5,1.2-6,2.4s-3,2.5-4.1,2.5c-1.1,0-0.9,2-3,2.6c-2.1,0.6-6-0.3-6.7,2c-0.8,2.2,2.5,4.9,2.5,4.9
			c-2.1-0.1-3.9-0.2-4.5-0.8c-1.1-1.1-3.1-3.5-5.1-3.5s-1.3-5-2.2-5.8c-0.9-0.9-2.2-0.8-2.2,1c0,1.8,0.7,4.9,1.7,5.8
			c1,1-0.8,3.8-1.8,3.8c-1.1,0-4.9-1.2-6.7-1.2s-3.7,3.7-5.7,3.7s-2.2,0.8-2.2,2c0,1.2,2.3,2,5.6-1.3c3.3-3.3,3.1,3.8,2.3,4.5
			s-5.4,2.7-3.8,6.5c0.6,1.4,2.2,3.8,3.6,3.8c1.4,0,2-2.3,2.8-2.3s6.7,0.8,7.3,0.2c0.6-0.6-2.1-2.9-1.5-4.1c0.6-1.1,3.8,1.9,5.7-3.5
			c1.9-5.4,1.8-4.3,2.2-3.8s-0.2,6.7,0.9,7.1c1.1,0.4-0.1,4.9,0.9,5.9c1,1,3.7-0.2,1.3,3.1s-2.1,4.2-1.4,4.9
			c0.7,0.7-0.6,1.9-1.7,1.4c-1.1-0.4-1.5-2-2.8-1.3c-1.3,0.8-1.3,4.1-0.6,4.7c0.6,0.6,0.3,1.9-0.9,1.9s0,3.1-2.3,3.1
			s-2.7-2.3-1.8-3.3s-0.8-3.9-1.6-3.9c-0.8,0-0.3,1.6-0.8,2.2c-0.6,0.6-2.5-0.2-1.1-2.1c1.4-1.9,0.4-3,1.4-3.4
			c0.9-0.4,2.9-1.4,2.9-2.9s-2.1-1.9-2.5-0.7s-1.5,1.6-2.9,1.6c-1.4,0-0.9,1.6-1.6,0.9s-0.8-3.3-1.6-3.3c-0.9,0-4,0.2-4.4,0.6
			c-0.4,0.4-0.1,2.2,0.4,2.6c0.5,0.5,1,2.4,0.4,2.9c-0.5,0.5-6.2,0.7-7.4,0.2c-1.3-0.4,0.9-3.1,1.3-3.1c0.4,0-2.6-1.9-1.5-2.3
			c1.1-0.4,4.1,0.2,4.7-0.4c0.6-0.6-1-2.5-1.7-2.5c-0.7,0-1,1.3-1.8-0.1c-0.8-1.4-0.4-2.6,0.2-3.2c0.6-0.6-0.3-3.5-0.9-4.1
			c-0.6-0.7-1.6,2.9-2.3,4.6c-0.6,1.7-1.9-1.6-4.2-2.2c-2.3-0.6-2.9,2.5-3.4,3c-0.4,0.4-4.7-0.2-5.2,0.3c-0.5,0.5-0.3,1-0.7,1
			s-6.8-6.5-6.4-8.2c0.4-1.7,2-4,0.3-5c-1.6-1-4.1,0.7-4.5,1c-0.4,0.4,1,2-0.7,2.8c-1.7,0.8-3.5-3.8-4.2-3.8s1.9,4.6-2.9,6.9
			c-1.5,0.7-4.3,0.5-6.9-0.1c0-10.1-10.7-20.3-12.2-21.8c-0.5-0.5-0.9-1.7-1.3-3c0,0-0.3-5.7,1.1-8.3s3.4-3.9,3.4-6.4
			s-0.1-10.7-2.2-11.9c-2.1-1.1-2.1-6.1-0.5-7.6c1.6-1.6,2-7.2,4.5-11.1s14-12.5,16.5-13.5c0,0,4.5,7,8.2,7c3.7,0,8.1,0.9,9.7,2.5
			c1.6,1.6,5.5,5.3,5.5,7.2c0,1.8-2.8,3-2.8,5.8s4,0,6.8,0c2.4,0,6,2.3,7.3,2.7c0.3,0.1,0.4,0.1,0.5,0c0.5-0.5,0.8-2.8,0-3.7
			c-0.8-0.8-2.3-3.3-1.5-4.2c0.8-0.8,1.3-0.1,2-0.8s-1.5-3,0.8-5.3c2.3-2.3,5-0.3,5.7-3.2c0.7-2.8-7.3-3.3-6.5-8
			c0.8-4.7,6.9-0.9,7.8,0c0.9,0.9,1.3-0.4,1.3-2.3c0-1.9-1.3-5.3,2.7-5.3s7-0.1,8.5-1.5c1.4-1.4,5.9,2.5,5.9,4.5s-0.8,4.6,0,5.3
			s0.8,4.6,0,5.3s-0.5,3.2-5,3.2s1.3,3.3,1.3,5.7s-2.5,3.2-4.5,3.2s-4.8-2.8-6.7-0.8c-1.9,1.9-0.9,3.9-2,5c0,0,4.5,2.3,4.5,4.3
			s2,2.3,5.1,2.3c3.2,0,6.4,2,7.7,2c1.4,0,1.7-1.5,3.9-2c2.2-0.5,3.4,0.5,4.3-0.3c0.8-0.8,1-3,2.1-3c1.1,0,7.6-0.2,8.9,0.9
			c0,0,0,0,0.1,0.1c0,0,0.1,1.7-0.8,2.5c-0.8,0.8-1.7,3.6-0.8,4.4c0.8,0.8,3.1,1.8,4.9,2.7c1.8,0.9,2.1,2.4,3.8,4.1
			c1.7,1.7,5.6,0.6,7.1,2.1C392.4,651.3,390.8,653.5,391.5,654.2z"/>
		<path class="st0" d="M283.5,122c-0.6,0.6-7.2-1.3-8.2-1.3s-3.2,3.4-4.3,4.6c-1.2,1.2-4.1,2-7.1,5s-3.8,9.1-4.3,9.6
			s-1.1-0.7-2.3,0.5c-1.2,1.2-1.3,2.7-2.8,2.7s-3.1-1.9-5-1.3c-1.9,0.7-5.6,5.2-6.5,6.1c-0.9,0.9-9.4,5.1-10.5,6.2
			c-1.1,1.1,0.8,9.2,0.1,9.9c-0.7,0.7-1.5-0.4-1.5,1.1s3.3,2,3.3,3.5s-0.8,4-0.8,5.7c0,1.7,3.2,2,3.2,4.8s-2,5-2.8,7.8
			c-0.4,1.7,4.8,8.1,4.4,10.6s-5.5,6.9-6.2,7.5c-0.6,0.6,0,6,0,6s-1-0.3-2.1,0.8c-1.1,1.1-1.1,5.8-2.3,7c-1.2,1.2-5,1.1-5.4,3.9
			c-0.4,2.8-5.6,6.1-9.2,7.5c-3.6,1.4-3.3,2.8-9,9.8c-5.7,6.9-12.8-0.3-14.1,3.8c-1.3,4.2,3.1,5.8,1.2,7.8
			c-1.9,1.9-10.8,5.9-15.7,6.8c-4.8,0.8-10.3-6.3-13.2,0.4c-2.9,6.7-18.3,13.4-21,13.9c-2.7,0.5-7.2,2.9-9,4.8
			c-1.8,1.8-3.2,0.5-3.2,0.5c0.2-0.2,1,0.5,1-0.3s-1.4-1.8-1.9-1.8s0.2-2.4,0.8-3s-0.5-1.1-1-1.1s-6.1,6.6-6.7,7.2
			c-0.6,0.6-2,1.7-3.2,2.3c-1.1,0.5-4.6-0.3-5-0.8c-0.4-0.4-1.8-1.8-2.2-2.5s0.4-4.5,0-5c-0.5-0.5-0.9,1.4-1.5,1.7
			c-0.6,0.3-2.1-1.1-3.2-0.6c-1.1,0.5,1.4,1.8,1.4,2.7c0,0.9-1.8,1.6-2.9,1.5c-1-0.2-1.5-3.5-1.7-4.3c-0.3-0.8-0.6-2-1.8-2
			c-1.1,0-2.2,0.1-2.5,0.4c-0.3,0.3-0.7,1.2-1,0.9c-0.3-0.3-2.3-3.2-2.7-3.2c-0.3,0-0.4,1.3-0.9,1.3s-0.8-2.4-1.8-2.4
			s-0.6,1.3-1.2,1.3S79.4,260,79,259.7c-0.3-0.3,0.3-1.8,0.3-2.6s-2.7,1.8-2.9,2.5s2.4,1.9,2.5,2.5c0.2,0.7-1.3,0.5-1.3,1.2
			s1.6,1.7,2.1,2.6c0.5,0.9-1,1.8-1.2,2.5C78.2,269,77,270,77,271c0,1-2.5-0.2-2.9,0.2c-0.4,0.4-2.7,0.8-3.2,1.3s-1.9,1.3-2.6,0.6
			c-0.7-0.7-0.8-1.9-0.2-1.9s0.8-7.6,0.4-8.1c-0.5-0.5-2.1-0.4-2.5-0.8c-0.5-0.5-0.3-1.5,0-1.9c0.3-0.3,1-1.6,0.5-2
			s-1.8-0.8-1.8-1.5s1-0.5,1-1c0-0.4-0.5-1.7-1-1.7s-3.8,0-4-0.3s-0.1-1.1-0.4-1.1c-0.3,0-0.9,0.1-1.3-0.3c-0.3-0.4-0.7-0.9-1.2-0.9
			s-1,0.9-1,1.4s-1.5,0.2-1.8,0c-0.2-0.2-0.4-1.9-0.8-2.3c-0.4-0.4-0.8-1.3-1.1-1.6c-0.3-0.3-0.2-1.3-0.8-1.3
			c-0.6,0-1.1-0.9-1.7-0.9c-0.5,0-1.2-2.5-0.9-3.4c0.3-0.9,2.1-1.9,2.9-2.2s0.2-5-0.2-5.4c-0.3-0.3-0.8-2.9-1.1-3.3
			c-0.4-0.4-0.8-1.8-0.4-2.2c0.4-0.4,1.1-0.8,1.1-1.1c0-0.3,0.1-1.8,0.5-1.8c0.4,0,0.8-1,0.8-2.1c0-1,1-0.4,1.7-1
			c0.6-0.6,1.8-0.7,2-0.9s1.3-0.8,2-0.8c0.8,0,0.5-2.3,1-2.3c0.5,0,1.7-1,2.5-1.2c0.8-0.2,0.8-1.3,1.5-1.5c0.7-0.3,1.3-1.2,1.9-1.2
			c0.6,0,1.5-1.9,1.9-1.9s2.6-1.9,3.1-1.9s3.5-2.1,4.1-2.1c0.5,0,2.8-1.4,3-2c0.2-0.5,1-1.9,1-1.9s3.5-4.1,3.9-4.1
			c0.4,0,1.1-1,1.1-1s1.7-1,1.9-1c0.3,0,2-2,2-2s2.7-2,3.1-2c0.4,0,5.5-1,6.8-1s0.7-2.4,0.9-3c0.2-0.5,2.3-2.8,3-2.9
			c0.8-0.2,3.7-2,4.3-2c0.6,0,4.2-2.1,4.9-2.1c0.7,0,4.1-1.9,4.8-1.9c0.7,0,1.6-2,2.3-2s6.1-1,7.8-1s4.6-5.1,5.8-5.1
			c1.1,0,2.9-1,3.3-1c0.4,0,2.8-3,6-3c0.8,0,1-1.6,1.6-1.6c0.6,0-0.3-2.6,0.2-3s6.5-4.6,7.4-4.5c0.9,0.2,5.4-1,5.9-1
			s2.6-1.8,3.2-1.8c0.6,0,1.6-1.4,2.8-1.1c1.1,0.3,0.5,2.5,5.6,1.1c1.1-0.3,1.7-4,3.8-4c2,0,1.2-3.6,1.6-4.4c0.4-0.8,2.8-4,2.8-6.8
			s9.8-4,12-8.4c2.3-4.4,0.9-5.4,4.5-7.1c1-0.4,0.6-4.7,2-6c1.4-1.4,4.8-3.3,7.3-4.4c2.5-1.2,0.8-10.2,4-11.9s1-12,4.5-13.6
			c3.5-1.6,4.9-0.7,5.8-1.6c0.9-0.9,0.3-5,1-5.7c0.7-0.7,1.3-1.3,3.3,0.7s2.2,1.6,3.4,1.6c1.2,0,3.8-3.3,4.2-4.1
			c0.3-0.8,3.6-2.8,6.1-2.8s8,5.6,8.7,6.8c0.7,1.2,0.9,5.9,1.4,6.4s1.8,1.5,3.6,4.5c1.9,2.9,2.8,3.5,2,4.3c-0.8,0.8-1.1,1.5-0.8,1.8
			c0.3,0.3,2.5,1.1,3.9,1.1c1.4,0,3.7,1.5,5.5,3.3c1.7,1.7,15.7,0.9,16.2,1.4s2,4.2,2.8,4.2c0.5,0,3.6,0.5,6.3,0.9c0,0,0,0,0,0
			C283.6,116.3,284.1,121.4,283.5,122z"/>
		<path class="st0" d="M249.6,232.8c0,1.1-2.6,2.4-3.9,2.4c-1.3,0-1,2.1-1.3,3.1c-0.3,0.9-3.9,3.5-3.9,5.1c0,1.6,1.5,6.8,1.9,7.3
			s1.1,0.2,1.3,1.4c0.2,1.3-0.6,4.5-1.2,5.1c-0.6,0.6-6.2-0.2-7-0.2c-0.8,0-2.3-1.9-3.1-1.9c-0.8,0-2.4,2.1-3,2.1
			c-0.5,0-2.1-1.4-2.5-1.9c-0.5-0.5-3,0.2-3.9,0.2c-0.8,0-1.1,1.8-2.5,3.2c-1.4,1.4,0.8,10-0.8,10.3c-1.6,0.3-1.5,0.7-1.9,1
			c-0.4,0.4-6.4,0-7.2,0c-0.8,0-4,2.5-3.2,4c0.9,1.6,6.3,0.9,6.6,0.9c0.4,0,1.1,4.5,1.3,4.7c0.2,0.2,0.3,2.5,0.3,3s-1.3,0.8-1.3,1
			s0.9,0.6,1.1,0.8s0.5,1.9,0.8,1.9s1.1,2.2,1.4,2.2s0.4,0.8,0.8,2.1s-0.5,8.5-0.9,8.9c-0.4,0.4-0.8,2.8-1.2,3.1
			c-0.3,0.3-0.2,2.2,0.8,2.4c1,0.2,2.5-0.4,2.8-0.8c0.4-0.4,2.6-0.7,3.2-0.2s2.2,3,2.8,3c0.6,0,0.3-1.1,1.3-1.1s2.3,2.1,2.7,2.5
			s1.5,4.8,2,5.2s4.7-0.5,4.7,0.2s4.9,2.9,4.9,3.8s-2.2,2.8-2.5,3.1c-0.3,0.3-3.1-0.4-3.6,0c-0.4,0.4,0.6,3.6,0,4.2
			s-0.9,0.4-1.2,0.8c-0.3,0.3,0.6,2.8,0,2.2c-0.6-0.6-3.8,0.4-4.6-0.3s-5.8-4.3-7-4.3s-2.9-2.2-3.6-2.9c-0.7-0.7-7,0.3-8.8-0.4
			c-1.8-0.7-4.4-3.8-5.2-3.8s-1,0.1-1.8,0.9c-0.8,0.8-0.1,4.2-1,5.1c-0.9,0.9-2.9,1.8-2.9,3.2c0,1.4,1.5,2.9,1.5,4.1
			s-1.9,2.6-2.8,3.5c-0.9,0.9-0.8,4.6-0.8,5.4c0,0.8-1.2,2.3-2.1,1.3s-9.6-6.1-12.6-7.4c-3-1.3-11.5-0.8-11.5,3.5
			c0,4.3,12.1,14.2,6.6,14.7s-5.2,7.3-9.4,7.3s-9.2-8.1-11.9-9.5c-2.8-1.4-6.4-0.9-7-1.5c-0.6-0.6-4.1-1.1-5.2-1.1s-0.1,1.2-0.9,1.2
			h-5c-0.9,0-3.4,2.6-3.4,3.1s1.2,1.3,1.2,1.8s0.3,5,0.3,6.4c0,1.4,1.1,0.1,1.1,1c0,0.9,0.3,2.9-0.8,2.9c-1,0-3.9-4-4.3-4.5
			c0.3,0.3,0.7,0.7,0.9,0.9c0.8,0.8,0-2.8-0.3-3.2c-0.4-0.4-3.2-2.8-4.5-2.8c-1.3,0-0.8,1.7-1.3,1.7c-0.5,0-1.8-2.7-2.5-2.7
			s-2.1-0.5-3.1,1.1c-1,1.6-8.2,0-8.9,0.3c-0.7,0.3-2.1,0.1-2.5-1.4s-1.5-2.3-1.4-2.5c0.2-0.2,1.5-0.7,1.5-1.3c0-0.7-2.2-0.6-2.4,0
			c-0.3,0.7-2.7-0.6-3.3-1.2c-0.6-0.6-1.6-1.9-1.2-2.4c0.5-0.5,1.1-0.4,1.5-0.8c0.4-0.4,0.1-2.1-0.2-2.4s1.1-1.8,1.7-2.4
			c0.6-0.6-0.5-6.3,0-6.8c0.6-0.5,3.1-2.2,3.1-2.7s-0.5-2.7,0.1-2.9c0.6-0.2,1.9-4.1,3.1-4.5c1.2-0.4,3.2-0.1,3.7-0.6
			s-0.8-0.4-0.8-1.2s-2-2.3-2-3.1c0-0.8,1.4-3,2.1-3.7s2.4,0.3,2.8-0.1c0.4-0.4-1.5-0.9-1.5-2.3c0-1.3,7-5.4,7.5-6.5
			c0.5-1.1-0.5-6.1,0.1-7.1c0.6-1,4.4-2.8,4.5-3.8c0.2-1-1.7-0.6-2.1-0.3c-0.4,0.4-0.7,1.2-1.4,1.2s-3.7-0.9-4.2-1.4s-1.3-1.4-1.3-2
			s0.9-0.6,1.1-0.9c0.3-0.3-0.1-3.7,0.2-4.5c0.3-0.8,3.9-5.3,5.2-5.8c1.3-0.5,2.5-1.6,2.7-1.8c0,0,1.4,1.3,3.2-0.5
			c1.8-1.8,6.3-4.3,9-4.8c2.7-0.5,18.1-7.3,21-13.9c2.9-6.7,8.3,0.4,13.2-0.4c4.8-0.8,13.8-4.8,15.7-6.8c1.9-1.9-2.4-3.6-1.2-7.8
			c1.3-4.2,8.4,3.1,14.1-3.8c5.7-6.9,5.4-8.3,9-9.8c3.6-1.4,8.8-4.7,9.2-7.5c0.4-2.8,4.3-2.8,5.4-3.9c1.2-1.2,1.2-5.9,2.3-7
			c1.1-1.1,2.1-0.8,2.1-0.8c0.2,2.7,2.2,4.2,3.7,4.2c1.5,0,5.8-0.6,7.1,0.8c1.4,1.4,1.3,5.8,1.5,7.6c0.2,1.8,2.2,4.5,3.5,5.1
			C249.6,229.1,249.6,231.7,249.6,232.8z"/>
		<path class="st0" d="M379.1,193.8c-1.4,1.4-1.1,8.4-1.1,8.4c-2.1,0.6-4.2,0.7-6,2.5c-11.4,11.4-21.8,11.5-23.3,11.5
			c-1.3,0-0.3,2.7,1.3,3.2s3.1,5.8,1.2,7.8s-5.1-0.5-7.7,3.8c-0.5,0.8-2.5-0.1-3,0.6c-3.4,4.6-8.7,1.5-12.5,9.3
			c-1.8,3.6-0.7-4.4-5.2-2.8s-4.9,3.4-5.6,4.1c-0.7,0.7-7.4-3.2-10.4-2.4s-2.1,5.8-7.5,7.8c-5.4,1.9,3.4,8.2-8.1,7.5
			c-1.2-0.1-0.9,1.9-1.9,2.7c-2,1.6-4-0.2-6.5,3.5c-1.1,1.5-3.1-1.3-4.3-1.2c-2.3,0.3-3.6,2.6-5.1,3c-1.1,0.3-3-1.6-4.2-0.4
			c-1.2,1.2,3.1,0.8,4,1.8c0.9,0.9-2.2,2.4-2.6,5.6c-0.5,3.2,4.4,5.7,5.5,7.5c1.2,1.8-2.2,4.8-2.7,6.7c-0.5,2-1.8,9.8,0.3,12.3
			c2.1,2.5,1.7,7.8,0.8,8c-0.4,0.1-1.9-2-2.5-4.4c-0.7-2.9-0.9-6.9-3.5-6.5c-1.5,0.3-3.2,3.5-5.6,5c-2.4,1.6,4.4-0.3,4.9,1.8
			c0.5,2.1-6,3.3-6.5,8c-0.4,4.7,8.5,9.7,12,9.3c0.8-0.1,1.5,0,2.1,0.1c0,4.6,2.9,5.8,3.7,6.6c0.8,0.8,0.9,6.1,0.2,6.8
			s-1.3,1.2,0.3,2.8c1.6,1.6,5.2,6.4,5.2,8.1c0,1.7-2.1,0.9-2.8,1.7s-5.6-0.5-7.3,0.4c-1.8,0.9-3.9,5.7-5.2,5.7s-4.6,0.7-5.1,1.8
			c-0.5,1.2,0.8,5.6,0.3,7.4c-0.5,1.8-3.8,1.5-5.5,0.6c-1.7-0.9,0.3-11.4-0.9-11.4s-2-1.5-2.8-2.2c-0.7-0.7,0.5-3.1,1.3-3.9
			c0.8-0.8,0.6-10.8,0-11.3c-0.6-0.6-3.3-2.3-4.8-2.3c-1.4,0-1.1,2.3-1.6,2.8s-2.6,1.4-3.4,2.2c-0.8,0.8-0.2,7.1-0.8,7.8
			c-0.7,0.7-0.7,3.3-1.2,3.8c-0.5,0.5-9,0.3-9,0c0,0,0,0,0,0c0.3-0.3-1.5-1.9-1.5-3.3s2.9-3.8,2.9-4.8s0.6-5.8-0.9-5.8s-2-3.2-2-3.2
			c0.6,0.6-0.3-1.9,0-2.2c0.3-0.3,0.6-0.1,1.2-0.8c0.6-0.6-0.4-3.7,0-4.2c0.4-0.4,3.3,0.3,3.6,0c0.3-0.3,2.5-2.1,2.5-3.1
			s-4.9-3.1-4.9-3.8s-4.3,0.2-4.7-0.2s-1.5-4.8-2-5.2s-1.7-2.5-2.7-2.5s-0.7,1.1-1.3,1.1c-0.6,0-2.3-2.5-2.8-3
			c-0.5-0.5-2.8-0.2-3.2,0.2c-0.4,0.4-1.9,1-2.8,0.8s-1.1-2-0.8-2.4c0.3-0.3,0.8-2.7,1.2-3.1c0.4-0.4,1.3-7.6,0.9-8.9
			s-0.5-2.1-0.8-2.1c-0.3,0-1.1-2.2-1.4-2.2s-0.6-1.7-0.8-1.9s-1.1-0.6-1.1-0.8s1.3-0.5,1.3-1s0-2.8-0.3-3s-0.9-4.7-1.3-4.7
			c-0.4,0-5.8,0.7-6.6-0.9c-0.9-1.6,2.4-4,3.2-4s6.8,0.4,7.2,0c0.4-0.4,0.3-0.8,1.9-1c1.6-0.3-0.6-8.9,0.8-10.3
			c1.4-1.4,1.7-3.3,2.5-3.3c0.8,0,3.4-0.7,3.9-0.2c0.5,0.5,2,1.9,2.5,1.9s2.1-2.1,3-2.1c0.8,0,2.3,1.9,3.1,1.9c0.8,0,6.4,0.7,7,0.2
			s1.4-3.9,1.2-5.1c-0.2-1.3-0.9-0.9-1.3-1.4s-1.9-5.6-1.9-7.3c0-1.6,3.6-4.2,3.9-5.1c0.3-0.9,0-3.1,1.3-3.1c1.3,0,3.9-1.3,3.9-2.4
			s0-3.7-1.3-4.2c-1.3-0.5-3.3-3.3-3.5-5.1c-0.2-1.8-0.1-6.2-1.5-7.6c-1.4-1.4-5.6-0.8-7.1-0.8c-1.5,0-3.5-1.4-3.7-4.2
			c0,0-0.6-5.4,0-6c0.6-0.6,5.8-5,6.2-7.5s-4.9-8.9-4.4-10.6c0.8-2.8,2.8-5,2.8-7.8s-3.2-3.2-3.2-4.8c0-1.7,0.8-4.2,0.8-5.7
			s-3.3-2-3.3-3.5s0.8-0.4,1.5-1.1c0.7-0.7-1.2-8.8-0.1-9.9c1.1-1.1,9.6-5.3,10.5-6.2c0.9-0.9,4.6-5.4,6.5-6.1
			c1.9-0.7,3.5,1.3,5,1.3c1.5,0,1.6-1.5,2.8-2.7c1.2-1.2,1.8,0,2.3-0.5s1.3-6.6,4.3-9.6s5.9-3.8,7.1-5c1.2-1.2,3.3-4.6,4.3-4.6
			s7.5,1.9,8.2,1.3c0.6-0.6,0-5.7,0-6c1.4,0.2,2.8,0.3,3.6,0.3c2.4,0,5.9-0.7,7.1-1.2c1.2-0.5,4.5-1.3,6.1-1.3c1.6,0,5.7,1.4,6.3,2
			c0.6,0.6,2.8,4.1,4.1,4.4s7.8-3.2,7.8-5.1s3.3-2.7,4.1-3.4c0.8-0.8-0.4-4.8,0.4-5.6c0.8-0.8,3.1-0.3,3.1-1.1
			c0-0.8-2.6-8.3-5.1-9.2c-2.6-0.9-9.1-14.4-9.7-15c-0.6-0.6-1.2-7.7-1.2-8.3c0-0.6-1.7-7.5-0.6-8.6c0,0,1.8,0.5,3.3,2
			s2.3,9.3,4.3,11.3s13,6,13.8,6c0.8,0,6,1.8,7.8,1.8c1.8,0,2.8,5.4,3.8,6.5s5.3,1.2,7.7,5.2c2.3,4-1.2,10-1.2,11.8s-0.8,11,0.5,11
			s8.5,8,8.5,9.5s-1.2,2.7-1.2,4.3c0,1.7,2.2,7,4.3,7c2.2,0,4.7-1.3,6,0c1.3,1.3,3.2,4.3,4.8,4.3c1.7,0,2.9,1.4,4.3,2.8
			c1.4,1.4-1.8,12.3-3,13.5s-1.9,9.3-1.2,10s2.3,4.5,2.3,7s2.8,5,3.8,6S380.5,192.3,379.1,193.8z"/>
		<path class="st0" d="M237.4,337c0,1-2.9,3.4-2.9,4.8s1.8,3.1,1.5,3.3c0,0,0,0,0,0c-0.2,0.5-3.3,8.2-5.6,9
			c-2.4,0.9-5.7-1.1-7.5,0.8c-1.8,1.8-1.3,7.3-2.1,8.1c-0.8,0.8-8-0.6-9,1.5s1.8,2.7,2.6,3.6c0.8,0.8,0.6,14.6,0.6,16.1
			s6,7.8,7.9,7.8s2.5,1.3,3.5,2.2c1,1,2.3,2.9,2.3,2.9s-3.8,2.3-4.9,4.5c-1.1,2.3-4.1,2.6-7.9,2.6s-4.9-3.2-7.1-3.2
			c-2.2,0-8,7.5-8.9,10.4s-0.9,5.3-3.1,5.3c-2.2,0-2.2-2.1-2.2-3s-2.9-1.4-4.1,1.5s-0.8,12.8,0,13.5s0,3.7,0,3.7
			c-0.7-0.7-3.4-1.8-4.3-0.9s-4.7,0.5-5.4,1.2c-0.7,0.7-0.6,2.1-1.1,2.7c-0.5,0.5-0.9-2.2-2.2-2.2s-4.7,0.4-5.1,1.4
			c-0.4,1.1,0.2,2.9-0.4,3.4c-0.6,0.6,0.4,1.1,0.7,1.4c0.3,0.3-0.2,2.3-0.7,2.8c-0.5,0.5-2.9-2.5-3.3-2.8c-0.3-0.3-3-1.5-3.6-2.1
			c-0.7-0.7,0.3-5.2-1.1-5.5c-1.4-0.3-1.2,1.6-1.6,1.6c-0.4,0-2.4-7.5-4.7-6.2c-2.2,1.3,3.2,6.6,3.2,7.6s-3-0.6-4.6-0.6
			s-2.8-0.4-3.1-0.6s0.5-2.6-0.9-4.1c-1.4-1.4-4.5-5.6-4.8-6.4c-0.3-0.9,0.1-3.6-1.4-4.1c-1.4-0.5-5.6,0.3-6.3-0.4
			c-0.7-0.7-1.3-3.8-6.8-2.1c-1.9,0.6-0.5,2.3,0,2.8s1.4-0.1,1.8,0.3c0.4,0.4-0.3,1.7,0.5,1.7c0.8,0,1.2-0.9,2.2-0.9
			s2.3,2.3,2.8,2.8c0.5,0.5-1.7,0.6-1.7,1.1s0.3,1.3,2.1,1.2c1.8-0.2,0.3,1.5,0,1.7s-2.8,1.5-3.4,1.5c-0.6,0-1.6-1.4-2-1
			c-0.4,0.4,0.2,4.3-0.1,4.5c-0.3,0.3-1.8,0.7-1.8,1.1c0,0.4,0.2,2.2-0.8,2.2s0,3.8-0.9,4.8c-0.9,0.9-1.7-0.3-2.1-0.7
			c-0.4-0.4-1.1-1.6-1.5-1.3c-0.4,0.4-0.6,1.3-1.4,1.3s-0.2-1.9-1-2.3c-0.9-0.4-1.8,1.4-2.2,1.8c-0.4,0.4,0.4,3.8-1.2,4.5
			c-1.5,0.7-1.3-1.7-2.4-1.8c-1.1-0.2-1.4,1.6-2.1,2.3c-0.7,0.7-2.5,0.2-2.9,0.7c-0.4,0.4-0.4,2.2-1.1,2.9s-1.4-2.1-2.1-2.1
			c-0.7,0-0.8-4.1,0-4.1c0.8,0,1.7-2.6,2.8-2.6c1.2,0,3.4,1,3.9,0.4c0.6-0.5-2.3-1.8-2.3-2.8s1.7-2.5,2.8-2.5c1.2,0,3.6,0.5,4,0.9
			c0.4,0.4,2.9-0.1,2.9-0.7c0-0.6-2.9-1.4-2.9-2.5c0-1.1,1.3-2.1,1.3-3.3c0-1.2-5.8-2.2-6.3-1c-0.5,1.2,2.4,1.8,2.9,2.3
			s-0.6,2.1-1.3,2.8c-0.7,0.7-1.6-1.6-2.8-1.6s-1.8-1.3-2.3-0.8s-0.8,1.3,0.1,2.2c0.8,0.8,0.9,2.6,0.2,2.6s-2.2-0.8-3.3-0.8
			c-1.2,0-0.6,1.1-1.3,1.1c-0.7,0-1-1.9-1.7-1.9s-0.9,2.3-1.4,2.3s-3.3-2.3-3.3-3.3c0-0.9,2.9-0.5,3.7-1.3s2.4-1.9,1.7-4.3
			c-0.8-2.3-2.1-3.7-2.8-2.9s-4.1,4.3-5.1,5.3s-2.3,0.1-2.3,0.1s-2.7-1.1-3-1.1c-0.3,0-2.4-2.8-3.1-2.8c-0.7,0-1.1,0.9-1.6,1.3
			s-2.1-2.8-3-3.7c-0.9-0.9,0.8-2.8,0.8-2.8s3.6-0.6,4.4,0.3c0.8,0.8,0.3-1.3,0.8-1.3s4,3.3,5.1,3.3c1.1,0,1.2-2.3,0.8-3.3
			c-0.3-1-2.5-0.6-3.2-1.9c-0.7-1.3-0.4-3.2,0.3-3.8c0.6-0.6,2.7,0,2.7-0.5s2.7-0.6,3.6,0.3c0.9,0.9,1.4,3.8,2.8,3.8
			s-0.8-2.6-0.3-3.8c0.5-1.2,1.5-0.7,0.4-2.9c-1.1-2.3-16.9,0.1-17.3,0.1c-0.4,0-5.3-3.9-7.6-3.9c-2.3,0-3.3,1.7-5.7,1.7
			s-4.8-1.7-6.3-1.7s-3.1-0.4-3.8-1.1c-0.7-0.7,4.7-3.3,6.2-3.6s3.5,0,4.2-0.7c0.7-0.7,0.3-2.8,1-2.8s1.8-2.1,2.8-2.1
			c1.1,0,3.7,3.5,5.6,3.5c1.9,0,3.4-1.5,3.4-2.1c0-0.6-6.3-1.8-7.2-2.8c-0.9-0.9-0.7-10.5-0.3-10.9c0.4-0.4,5.8-8.6,6.6-8.6
			c0.8,0,2.9-0.9,3.6-1.6c0.7-0.7-1.6-5.3-1.6-5.3s-1.1-3.9-0.4-4.6c0.7-0.7,4.6,0.5,5.4,1.3c0.8,0.8,1.9,0.9,2.3,0.9
			s2.2-1.4,3.3-1.4c1.2,0,0-6.5,0.6-7.1c0.6-0.6,2.8,3.6,3.8,3.6c0.9,0,0.2-2,1.5-3.3c1.3-1.3,4.3-0.2,4.9,0.4c0.6,0.6,1.5,2,3.4,2
			s1.6-2.4,2.9-3.7c1.3-1.3,6.8-2.1,8.6-1.4c1.8,0.7,1.2,3.4,2,4.3c0.8,0.8,2-0.5,2-2.1c0-1.1,1-0.3,1.8,0.5c0,0,0,0,0,0
			c0.4,0.5,3.3,4.5,4.3,4.5c1.1,0,0.8-2,0.8-2.9c0-0.9-1.1,0.4-1.1-1c0-1.4-0.3-5.9-0.3-6.4s-1.2-1.3-1.2-1.8s2.5-3.1,3.4-3.1h5
			c0.8,0-0.2-1.2,0.9-1.2s4.5,0.5,5.2,1.1c0.6,0.6,4.3,0.1,7,1.5c2.8,1.4,7.7,9.5,11.9,9.5s3.9-6.8,9.4-7.3s-6.6-10.3-6.6-14.7
			c0-4.3,8.5-4.8,11.5-3.5c3,1.3,11.7,6.5,12.6,7.4s2.1-0.5,2.1-1.3c0-0.8,0-4.5,0.8-5.4c0.9-0.9,2.8-2.3,2.8-3.5s-1.5-2.7-1.5-4.1
			c0-1.4,2-2.3,2.9-3.2c0.9-0.9,0.2-4.3,1-5.1c0.8-0.8,1.1-0.9,1.8-0.9s3.3,3.1,5.2,3.8c1.8,0.7,8.1-0.3,8.8,0.4
			c0.7,0.7,2.4,2.9,3.6,2.9c1.1,0,6.2,3.5,7,4.3s4-0.3,4.6,0.3c0,0,0.5,3.2,2,3.2S237.4,336,237.4,337z"/>
		<path class="st0" d="M240.4,400.3c0,0,0,0.1-0.1,0.1c-0.9,2.1-5,8-6.1,8c-1.1,0-2.6,0.3-4.1,1.9s-0.1,3.8-2.8,4.6
			c-2.6,0.9-6.7,2.8-8.1,4.2c-1.4,1.4-3.1,4.9-3.9,5.6s-6.9-0.4-5.9,10.4c-1.5,1-4.7,5.1-6,5.1c-1.5,0-12.5-7.4-13.1-8
			c0,0,0.8-2.9,0-3.7s-1.3-10.6,0-13.5s4.1-2.4,4.1-1.5s0,3,2.2,3c2.3,0,2.3-2.4,3.1-5.3c0.9-2.9,6.6-10.4,8.9-10.4
			c2.3,0,3.4,3.2,7.1,3.2s6.8-0.4,7.9-2.6c1.1-2.3,4.9-4.5,4.9-4.5s2,4,3.5,2.5s2.8,1.7,4.3,1.7
			C237.3,401.3,238.8,400.7,240.4,400.3z"/>
		<path class="st0" d="M330.8,368.1c0,0-5.3,2.8-6.3,7.3s-3.6,10.4-8.3,15.2s-4.8,5.3-9.4,4.6c-4.6-0.6-10.4,3.3-20.5-3.2
			c-2.2-1.4-4.3,0.2-8.7,0.6c-5.9,0.6-14.5,0.4-20.8,0.4c-2.4,0-1.9,2.2-4.1,2.2c-9.4,0-10.8,1.7-12.2,5.1c-1.7,0.4-3.2,0.9-4,0.9
			c-1.5,0-2.8-3.2-4.3-1.7s-3.5-2.5-3.5-2.5s-1.3-1.9-2.3-2.9c-1-1-1.6-2.2-3.5-2.2s-7.9-6.3-7.9-7.8s0.2-15.2-0.6-16.1
			c-0.8-0.8-3.6-1.4-2.6-3.6s8.2-0.7,9-1.5c0.8-0.8,0.3-6.3,2.1-8.1c1.8-1.8,5.1,0.1,7.5-0.8c2.3-0.8,5.4-8.5,5.6-9
			c0,0.3,8.5,0.5,9,0c0.5-0.5,0.5-3.1,1.2-3.8c0.7-0.7,0-7,0.8-7.8c0.8-0.8,2.9-1.7,3.4-2.2s0.2-2.8,1.6-2.8c1.4,0,4.2,1.7,4.8,2.3
			c0.6,0.6,0.8,10.5,0,11.3c-0.8,0.8-2,3.2-1.3,3.9c0.7,0.7,1.6,2.2,2.7,2.2c1.2,0-0.8,10.5,0.9,11.4c1.7,0.9,5,1.3,5.5-0.6
			c0.5-1.8-0.8-6.3-0.3-7.4c0.5-1.2,3.8-1.8,5.1-1.8s3.4-4.8,5.2-5.7c1.8-0.9,6.6,0.3,7.3-0.4s2.8,0,2.8-1.7c0-1.7-3.6-6.5-5.2-8.1
			c-1.6-1.6-1-2-0.3-2.8s0.6-6-0.2-6.8c-0.8-0.8-3.7-2-3.7-6.6c2.3,0.5,3.8,2,3.8,2.7c0,0.9,7.7,0.4,8.6-0.6c1-1,2.3,7.8,6.9,12.4
			c1,1,1.8,2.6,2.9,2.6c1.2,0,2.4,5.6,5.8,7.8c3.4,2.2,5,2.8,6.7,2.3c1.7-0.5,9,9.8,9.8,10.6c0.8,0.9,3.1,0.4,3.5-0.5
			c0.4-0.9,6.4,5.8,7.2,7.3S330.3,367.7,330.8,368.1z"/>
		<path class="st0" d="M219.5,457.3c-4.6-3.3-10.3-7.5-10.9-7.5c-0.9,0,0.9-6.1,0.3-6.8s-0.8-2.5-2-2.5s-1.8,2.6-1.8,2.6
			s-6.3-0.2-7.4-1.4c-0.9-0.9-5.8-6.1-6.6-6.1s-3.8,1.8-3.8,3.1s0.6,5.9,0.6,6.6c0,0.7-1,1.6-1.2,1.7c-0.1,0.1-1.9-1.2-1.9-1.2
			s0.2-2.6-0.2-3.1c-0.4-0.4-1.4,0.5-1.9,1c-0.5,0.5-1.2,1.4-1.2,2.8c0,1.4,1.3,2.3,2.3,2.3c1.1,0,2.1,1.1,3,1.1
			c0.9,0,1.3-2.4,1.8-2.4c0.5,0,2.6,2.4,2,3.7c-0.6,1.3-3.3-0.2-3.3,1.6c0,1.8,3.1,2.5,3.7,2.5c0.6,0,1.8,1.8,2.3,1.8
			c0.6,0,0.8-2.7,1.7-1.8c0.9,0.9,2.5,2,3.2,1.3c0.7-0.7,0.6-4.3,2.3-4.3s6.2,6.3,6.7,7.4s0.8,6.8,0.8,7.6c0,0.9-1.3,1.3-1.3,2.9
			s3.9,5,4.6,5.7c0.7,0.7,0.4,1.9-0.2,2.6c-1,1,0,2.3,0.6,2.3c0.6,0,0.3-1.3,1-1.3c2,0,5.2,2.6,6,3c0.8,0.4,3.8,3.2,1.5,3.2
			s-2,3.3-3,3.3s-4.3-3.6-5.2-3.6c-1,0-4.6,2.8-4,3.3c0.6,0.6,1.6,3.6,1.2,4c-0.4,0.4-1.6,0.1-1.6,0.7c0,0.6,1,1.5,1,2.1
			c0,0.6,1.1,4.3,2,3.4c0.9-0.9,2.3-2.5,2.8-3s5-0.7,5.5-0.2c0.5,0.5-0.2,1.3-0.7,1.8c-0.5,0.5-3-0.2-3.5,0.3
			c-0.5,0.5,0.3,5.7-0.1,6.1c-0.4,0.4-1.8,0.5-1.8,1.4c0,0.9,2.5,2.2,3,1.7c0.5-0.5,1.4-2.2,1.7-2.2c0.3,0,0.6,0.9,1,0.9
			c0.3,0,1.7-1.4,3.3-1.2c1.6,0.2,0.1,2.1-0.2,3.2c-0.3,1.1-4.4,0-4,1.6c0.4,1.7,7.2,6.6,7.7,7.1c0.3,0.3,1,0.6,1,1
			c5.1,0.8,8.6-1.2,10-2.7c1.5-1.5,6.8-0.2,8.5-0.2s4.8,3.3,5.7,3.3s6.8-0.6,7.8-2.3c0.9-1.7,2.6-6.7,6.3-6.7s6.2-1,6.2-1
			c2.5-0.6,6.5-5.2,6.5-5.7s2.4-2.5,2.4-3.3c0-0.8,3.8-3,3.8-4s1.4-2.6,1.4-2.6s0.7-0.8,1.8-1.8c1.1-1.1-1.3-7.9,0.4-9.6
			c1.7-1.7,2.3-5.8,3.1-7.3c0.8-1.6-0.6-3.2-1.1-3.7c-0.5-0.5-0.4-3.2,0.2-4.4c0.6-1.3,2.5-0.8,3.1-1.3c0.5-0.5,1.5-4.3-0.8-4.3
			c-2.3,0-3.5-1.3-4.7-1.3s-3.4,1-4.3,0c-1-1-2-3.4-3.8-3.9s-5.3-0.1-6.1-0.9c-0.8-0.8,0.3-5.3-0.3-5.3c-0.7,0-1-2.8-0.3-3.5
			c0.7-0.7,1.8-5.3,0.8-5.3c-1.1,0-0.8-1.2-0.8-3.3c0-2.2,4.2-3,5.2-4s0.9-3.4,0-4.3c-0.9-0.9-2.8-1.7-3.5-1.7
			c-0.7,0-1.3-2.6-2.3-3.7c-1.1-1.1-2.7,0-3.7-1s1.3-8-1.7-8.8c-3-0.8-9.8,0.2-9.8-1.5c0-1.7-1.2-5-2.8-5s-4.3,2.3-4.3,0
			c0-2.3-1.3-5.3-4-6.3c-1.3-0.5-2.9-0.3-4.4,0.1c0,0.1,0,0.1-0.1,0.1c-0.9,2.1-5,8-6.1,8c-1.1,0-2.6,0.3-4.1,1.9s-0.1,3.8-2.8,4.6
			c-2.6,0.9-6.7,2.8-8.1,4.2c-1.4,1.4-3.1,4.9-3.9,5.6s-6.9-0.4-5.9,10.4c0.2-0.2,0.4-0.3,0.6-0.3c1.1,0,3.8-1.5,4.4-2.1
			c0.7-0.7,4,0.5-0.8,2.6c-4.7,2.1-3.9,4-3.6,4.3c0.4,0.4,0,7.8,0.8,9.1c0.5,0.9,8.1,6.5,12.6,9.8 M223.5,458.5
			c1.9,1.4,3.2,2.3,3.2,2.3s-0.4,0.6-1.7,0.1c-0.5-0.2-2.8-1.8-5.5-3.7"/>
		<path class="st0" d="M228.9,676c-0.6,0.6-4.4,2.9-4.4,4c0,1.1-3.1,0.1-4.1-0.9s-10.7,0.8-11.6-0.1c-0.9-0.9-5.4-4.5-5.4-9.5
			s3.4-5.9,5-5.9s4.1,2.6,5.5,2.6c1.5,0,2.1-1.7,5.1-1.7s4,2.3,5,3.2c1,1,3.7,0.5,4.9,1.6S229.5,675.3,228.9,676z"/>
		<path class="st0" d="M268.8,569.4c-4.1,4.6-2.9,9.7-1.4,9.7c0,0-2.4,1.8-4.1,1.8c-1.6,0-2.5-1.1-3.6-2.1c-1-1-2.3-3.2-3.3-2.2
			c-1,1-0.8,2.6-0.8,4.7c0,2.1-2.6,2.6-3.4,1.9c-0.8-0.8,2-6.3-0.6-7.1c-2.6-0.9-3.3-4-3.3-6s3-2.9,4-6.6s7.3-5.7,7.3-5.7
			c2,1.8,4.7,4,6.9,4.8C270.5,563.8,272.8,564.8,268.8,569.4z"/>
		<path class="st0" d="M357.6,614.3c-0.8,0.8-0.5,3.2-5,3.2s1.3,3.3,1.3,5.7s-2.5,3.2-4.5,3.2s-4.8-2.8-6.7-0.8
			c-1.9,1.9-0.9,3.9-2,5c-1.1,1.1-1.3-0.8-3.3,1.2s-2.3,3.2-4.3,3.2c-0.8,0-1.8-0.7-2.7-1.5c0.3,0.1,0.4,0.1,0.5,0
			c0.5-0.5,0.8-2.8,0-3.7c-0.8-0.8-2.3-3.3-1.5-4.2c0.8-0.8,1.3-0.1,2-0.8s-1.5-3,0.8-5.3c2.3-2.3,5-0.3,5.7-3.2
			c0.7-2.8-7.3-3.3-6.5-8c0.8-4.7,6.9-0.9,7.8,0c0.9,0.9,1.3-0.4,1.3-2.3c0-1.9-1.3-5.3,2.7-5.3s7-0.1,8.5-1.5
			c1.4-1.4,5.9,2.5,5.9,4.5s-0.8,4.6,0,5.3S358.4,613.5,357.6,614.3z"/>
		<path class="st0" d="M504.9,464.7c0,0-0.2,2.4,1.1,3.8c1.3,1.3,2.1,3.9,2.9,3.1c0.8-0.8,1.8-1.6,2.8-1.6s2.3-0.4,2.3-1
			s0.1-6.1-0.8-6.9s-1.4,2-2.4,2s-3-0.3-4.6-0.3S504.9,464.7,504.9,464.7z"/>
		<path class="st0" d="M557.8,474.5c0,0-1.1-1.6,0-2.7c1.1-1.1,3.1,0.3,3.1,1.4s-1.8-0.8-1.8-0.2
			C559.1,473.5,559.4,474.5,557.8,474.5z"/>
		<path class="st0" d="M41,249.1c0,0-2.5,0.3-2.5,2.3s1.3,3,3.2,3c1.8,0,1.3-2.8,2.5-4s2-1.3,2-3s0.8-7.5-1-7.5s-1.6,3.2-2.7,4.3
			C41.3,245.4,42,248.1,41,249.1z"/>
		<path class="st0" d="M67.3,277.9c0,0,1.7-2.8,3-2.8s3.8-0.4,3.8,1.4c0,1.8-2.2,1.1-2.9,1.8c-0.7,0.7-2.3,1.5-2.8,1
			C67.8,278.8,68.5,277.9,67.3,277.9z"/>
		<path class="st0" d="M71.9,282.4c0,0,1.1-0.4,1.1-1.6c0-1.2,0.3-1.3,1.5-1.3s0.3-1.3,1.2-1.3c0.8,0,1.8,1.3,1,2.1s-2.2,0.4-2.2,1
			s-0.3,1.8-1.4,1.8C71.8,283.2,71.9,283.8,71.9,282.4z"/>
		<path class="st0" d="M64.9,287c0,0,2.4,0,2.4-0.8s0.8-1.1,1.6-0.3s1.1,1.7,0,2s-1.6,1.9-2.3,1.3s-1-0.8-1.8-0.8S64.3,287,64.9,287
			z"/>
		<path class="st0" d="M82.2,281.3c0,0,0.1-1.8,1.5-1.8s2.6-1.2,2.1-1.7s-2.4,0.3-2.9-0.9s1.8-0.9,2.3-1.5s0.7-3.6,2.5-3.6
			s3.1,0.9,3.1,1.9s-1.3,0.8-1.3,1.8s0.8,0,1.3,1.7s-1.8,0.9-2.3,2.2c-0.6,1.3-3,1.6-3,2.3S82.2,282.8,82.2,281.3z"/>
		<path class="st0" d="M83.1,270.5c0,0-0.9-1.6,0-2.5s1.6,0.6,1.6,1.3c0,0,1.5,0.3,1.1,0.8C85.3,270.5,84.7,271.2,83.1,270.5z"/>
		<path class="st0" d="M78.5,287.1c-0.3,0-0.5-0.2-0.5-0.5c-0.2-0.9-0.3-2.3,0.2-2.8c0.7-0.7,1,0.3,1,0.8s0.3,0.2,0.8,0.8
			c0.6,0.6,1.4,0.4,1.4,1.1s-1.3,0.9-1.8,0.9C79.3,287.4,78.8,287.1,78.5,287.1z"/>
		<path class="st0" d="M102.2,292.7c0,0-0.8-2.3,0-3s2.5-0.2,2.5,0.4c0,0.6-1.2,0.2-1.2,0.9C103.6,291.7,104.2,292.7,102.2,292.7z"
			/>
		<path class="st0" d="M74.1,290.6c0,0,0.3-0.4,0.3-1.1s0-1.3,0.7-1.3s2.4,0.6,1.9,1.2c-0.6,0.6-1.6,0.6-1.6,1.2
			S75.1,291.6,74.1,290.6z"/>
		<path class="st0" d="M109.4,282c0,0-1.2-1-0.6-1.5c0.5-0.5,1.6-0.8,1.6,0s1.1,0.8,1.1,1.2s-0.3,1.1-0.9,1.1S109.4,282,109.4,282z"
			/>
		<path class="st0" d="M91.4,359.7c0,0-0.7-3.3,0-4s2.8,4,3.6,4S93.4,360.6,91.4,359.7z"/>
		<path class="st0" d="M76.1,369.2c-0.9-0.6-1.1-1.7-0.7-2.7c0.3-0.5,0.7-0.9,1.2-0.9c1.7,0,5.1,1.5,6,2.4s-0.1,2,1.1,2
			c1.2,0-0.2,1.8-1.4,1.3s-0.1,0.8-1.2,0.8c-1.1,0-0.6-1.9-1.6-1.9c-1,0-1.4-0.3-2.2-0.3C76.7,370.1,76.7,369.6,76.1,369.2z"/>
		<path class="st0" d="M97.3,363.6c0,0-0.4-1.8,0-2.2s1.9-0.8,1.9,0s-1.1,1.3-1.1,1.3S98.8,363.6,97.3,363.6z"/>
		<path class="st0" d="M171.3,835.1c0,0-2.3-1.9-3.9-3.5s-4.5-1.7-4.5-4s-0.7-3.7,0-4.3c0.7-0.7-0.7-3,0.8-4.5s2.9-1.3,4.5-2.8
			s-0.2-3.2,1.8-3.2s2.8-2.2,7.3-2.2s3-2.7,5.7-2.7s3.8-2.3,5.7-2.3c1.8,0,5.2-0.8,10-0.8s10.3-2.2,13.8-0.8c3.5,1.3,3.5,2.7,5,2.7
			s0.7,4.7,2.7,4.7s-1.2,3-1.2,4.8s-2.2,1.7-3.7,3.2c-1.5,1.5,0.3,3.5-0.7,4.5s-4.3,1.3-5.3,2.3s-3.6,0.1-4.7,1.2
			c-1.1,1.1-4.3,2-6.5,2s-3.5,0.3-4.8,1.7c-1.3,1.3-4.6-1.1-5.7,0c-1.1,1.1,0.3,1.7-1.8,1.7c-2.2,0-2.2-2.2-5.3-2.2
			c-3.2,0-4.3,0.3-5.2,1.2s-2.1,0.1-2.8,0.8S173.6,835.1,171.3,835.1z"/>
		<path class="st0" d="M223.7,810.8c0,0,0-0.5-0.8-1.2c-0.7-0.7-1.8-2.1-0.5-2.1s3.9,1,3.3,1.6c-0.6,0.6-1.9-0.4-1.9,0
			S225.1,810.2,223.7,810.8z"/>
		<path class="st0" d="M170,840.5c0,0-0.6-1.1,0.3-1.1c0.9,0,2.3,1.2,1.7,1.8c-0.7,0.7-1.6,0.4-2.2,0.4S169.5,840.5,170,840.5z"/>
		<path class="st0" d="M167.2,836.1c0,0,0.9-0.6,2.2-0.6s1.7,2.2,1.3,2.6C170.4,838.5,167.2,837.4,167.2,836.1z"/>
		<path class="st0" d="M66,433.8c0,0,0.4-1.9-1-1.9c-1.4,0,0.3-2.6,1.9-2.6s2.4-2.1,3.1-1.4s0.9,3,0,3.9s-2.4,0.1-2.4,0.9
			S68.1,433.8,66,433.8z"/>
		<path class="st0" d="M68.9,437.6c0,0-0.3-2,0.8-2s2.5,1,2.5,1S70.4,437.6,68.9,437.6z"/>
		<path class="st0" d="M87.5,434.3c0,0,2-3.6,3.3-3.6s2.1,0.7,2.1,1.4s-1.4,1.8-2.3,1.8S88.8,435,87.5,434.3z"/>
		<path class="st0" d="M101.6,435.1c-0.3,1-0.5,2.1-1.3,1.9c-0.8-0.2-1.2-1.3-0.9-2.3s1.2-1.7,2-1.5
			C102.2,433.5,101.9,434.1,101.6,435.1z"/>
		<path class="st0" d="M103.6,439.2c0,0,0.2-1.5,1.3-1.5s0.5,1.3,1.1,1.8s-0.6,0.8-1.2,0.8S103.6,439.8,103.6,439.2z"/>
		<path class="st0" d="M103.6,444.3c0,0,1.8-3.1,2.5-3.1c0.7,0,2.3-0.3,2.8-0.9c0.5-0.5,2.2-0.3,2.7-1.3s1.4,0.8-1.5,2.6
			s-1.3,2.9-2.2,3.2S104.6,446.7,103.6,444.3z"/>
		<path class="st0" d="M137.9,448.3c0,0-0.5-1.4,0.3-1.4s2.9-0.5,2.9,0.5c0,1-1,1.2-1.3,1.5C139.5,449.2,138.9,449.4,137.9,448.3z"
			/>
		<path class="st0" d="M151.7,438.8c0,0-0.2-0.8,1.4-0.8s2.9,0.4,2.9,1.1s-2.2,0.9-2.2,1.4s-0.3,1-1,1S151.7,440.2,151.7,438.8z"/>
		<path class="st0" d="M142.3,434.4c0,0,0.1-0.5,0.4-1.3c0.3-0.8,0.7-1.2,1.2-0.7s0.8,1.6,0.4,1.9S142.9,436.3,142.3,434.4z"/>
		<path class="st0" d="M176.6,441.5c0,0-0.5-2.1,0.8-3.4c1.3-1.3,3.1-2.6,3.5-2.2c0.4,0.4,1.7,1.5,2.6,1.5c0.9,0,2.3,0.5,1.6,1.3
			c-0.7,0.7-1.9,0.6-1.9,1.6s-2.1-1-3,0C179.2,441.2,179.1,442.5,176.6,441.5z"/>
		<path class="st0" d="M172.6,450c-0.7-0.7-0.8-1.9-0.1-2.6c0.2-0.3,0.5-0.4,0.9-0.4c1.2,0,2.3,1.8,2.3,2.8s-0.7,1.3-1.5,1.3
			C173.7,451,173.1,450.5,172.6,450z"/>
		<path class="st0" d="M176.5,451.8c0,0,1.1-0.3,1.1-2.3s2.5,1.9,1.6,2.8C178.2,453.3,177.2,453.9,176.5,451.8z"/>
		<path class="st0" d="M182.6,461.1c0,0,0.1-1.2,1.3-1.2s1.3,1.9,2.6,1.9s0.8,1.8-0.8,1.8S182.2,462.8,182.6,461.1z"/>
		<path class="st0" d="M188.7,473.8c0,0,0-1.3,0.9-1.3c0.9,0,1.8,2,2.4,2.7s0.8,2.2,0,2.2c-1.2,0-2.2-0.7-2.4-1.3
			C189.5,475.5,189.1,475.3,188.7,473.8z"/>
		<path class="st0" d="M195.6,467.2c0,0-0.3-1.2,0.6-2s-0.3-2.7,0.4-3.4s2.5,2.7,3.7,2.7s2.3,1,1.2,2
			C200.3,467.6,197.4,467.8,195.6,467.2z"/>
		<path class="st0" d="M192.3,463c0,0,0.2-1.3,0.9-1.3s1.3,0.2,1.3,1.3s-0.2,1.3-1.1,1.3C192.5,464.3,192.3,464,192.3,463z"/>
		<path class="st0" d="M157.1,492.3c0,0-0.3-0.9,0.6-0.9s0.3-1.4,0.9-1.4c0.6,0,0.6,1,0.8,1.2c0.2,0.2,1.5,0.6,1,1.2
			C159.8,492.9,157.7,493,157.1,492.3z"/>
		<path class="st0" d="M167,490c0,0-0.8-3.3,0-4.1c0.8-0.8,4.8,2.3,4.8,3.4S168.6,490.6,167,490z"/>
		<path class="st0" d="M165.6,493.8c0,0-0.8-3.9-0.4-3.4c0.5,0.5,1.2,1.7,1.9,1.7s1.5,2.9,0.8,3.5c-0.7,0.7-0.7-0.8-1.3-1.4
			C166,493.6,166.1,494.3,165.6,493.8z"/>
		<path class="st0" d="M199.6,488.5c0,0-0.3-2.6-1.4-3.7s2.5-2.1,4-0.6s1.4,2.6,2.1,3.3c0.7,0.7-0.3,0.8-0.7,1.7s0.6,2.2-0.3,2.2
			s-1.6-0.8-2.4,0s-1.7,1.6-2.4,0.8C197.7,491.4,199.6,491.6,199.6,488.5z"/>
		<path class="st0" d="M180.4,486.8c0,0-0.9-2.3,1-2.3s2.8,0.2,3.4,0.8c0.6,0.6,0.8,0.5,1.3,0.9c0.2,0.2-1,0.1-1.6,0.8
			c-0.4,0.4,0.1,1.5-0.3,1.5C183.1,488.6,181.6,488,180.4,486.8z"/>
		<path class="st0" d="M189.3,484.9c0,0,1.3,0.7,2.1-1.5s4.6,2.3,3.8,3.2s-0.8,3.5-2.5,3S189.3,486.8,189.3,484.9z"/>
		<path class="st0" d="M157,504.6c0,0,2.9-0.6,2.9,0.6c0,1.2,0.4,2.7,0,2.7C159.6,507.8,157,506.3,157,504.6z"/>
		<path class="st0" d="M163.9,501.6c0,0,0.5-1-0.3-1.8s-0.8-2.3,0-2.3s2.6,1.4,3.6,2.4c0.9,0.9-1.1,0.7-1.8,0.7
			S166.4,502.1,163.9,501.6z"/>
		<path class="st0" d="M159.8,538.2c0,0-0.1-1.9,1.1-1.9s2.3,0.6,2.3,1.3s-1.2,0.6-1.2,0.6S161,539.3,159.8,538.2z"/>
		<path class="st0" d="M126.1,542.8c0,0,0.3,0.1,0.7-0.3c0.3-0.3-0.1-1.2,0.8-0.9c0.8,0.3,0.8,1.6,0.5,2
			C127.6,543.9,125.9,543.9,126.1,542.8z"/>
		<path class="st0" d="M135.7,540.5c0,0-0.9,0-0.5-1.4c0.4-1.3,0.5-1.2,0.9-0.8s0.2,1.3,0,1.5C135.9,539.9,136.1,540.1,135.7,540.5z
			"/>
		<path class="st0" d="M146.3,539.7c0,0-0.9-0.8-0.3-1c0.6-0.2,1.1-0.4,1.5,0C147.8,539,147.4,539.7,146.3,539.7z"/>
		<path class="st0" d="M180.4,548.2c0,0,1.6-4.4,3.8-4.4s0.1,2.3,1.1,3.7s1.5,2.9,1.5,5.1s0.3,2.2,0.9,2.3c0.6,0.2-0.2,3.2,1,4
			s0.1,1.8,1.2,2.1c1.1,0.3-0.2,2.1-2,1.4s-2.2-3.3-3.9-3.8s-2.8-2.3-2.1-2.9c0.7-0.7,1.8-0.6,1.8-1.7c0-1.1-0.8-1.2-1.1-2.3
			c-0.3-1.1-1.2-2.4-1.3-2.6C181,548.8,180.4,548.8,180.4,548.2z"/>
		<path class="st0" d="M187.7,565.3c0,0-0.7-1.2,0-1.5s2.8-0.3,2.8,0.9s0.3,0.8-0.7,1.2C188.8,566.4,188.2,565.9,187.7,565.3z"/>
		<path class="st0" d="M182.2,567.5c0,0-0.3-0.8,0.5-0.8s0.2-1.2,0.8-1.2s0.8,1.6,1.2,2c0.4,0.3,1.5,2,0.7,2.2s-0.7-0.5-1.4-1
			C183.1,568.3,182.7,568.5,182.2,567.5z"/>
		<path class="st0" d="M175.1,571.2c0,0,0.4-1,1.3-0.8s1,1.2,0.7,1.9s-0.9,0.7-0.9,0C176.1,571.6,175.1,572,175.1,571.2z"/>
		<path class="st0" d="M171.1,571.8c0,0,1.5-1,2,0s-0.1,0.7-0.5,1c-0.3,0.3,0.3,1.1-0.4,1.1C171.4,573.9,170.8,573,171.1,571.8z"/>
		<path class="st0" d="M153.2,576.5c0,0,0-0.9,1.4-0.9s0.3,2.2,0,2.2S153.9,576.5,153.2,576.5z"/>
		<path class="st0" d="M154.3,586.5c0,0,0-0.9,1.4-0.9s0.3,2.2,0,2.2C155.4,587.8,154.9,586.5,154.3,586.5z"/>
		<path class="st0" d="M161.9,577.6c0,0,0-0.9,1.4-0.9s0.3,2.2,0,2.2C163,578.8,162.6,577.6,161.9,577.6z"/>
		<path class="st0" d="M177.1,576.1c0,0,0.6,0.3,0.6-0.5s0.5-1.5,1.1-0.9c0.6,0.6,0.5,1.6,0,2C178.4,577.1,177.1,577.5,177.1,576.1z
			"/>
		<path class="st0" d="M159.1,578.8c0,0-0.5-2.7,0-2.7S160.9,578.3,159.1,578.8z"/>
		<path class="st0" d="M161.2,580.9c0,0-1.1-1.3-0.3-2.1c0.8-0.8,1.6,0.7,1.6,1.4S161.6,581.5,161.2,580.9z"/>
		<path class="st0" d="M160.6,574.4c0,0-1.4-0.1-0.6-0.9c0.8-0.8,1.9-0.2,1.9,0.5s0.5,0.9,0.5,0.9s0.5,0.8-0.5,0.8
			S160.6,575.1,160.6,574.4z"/>
		<path class="st0" d="M172.9,599.2c0,0-1.5-1.4-0.8-2.1C172.8,596.3,174.2,597.9,172.9,599.2z"/>
		<path class="st0" d="M187.3,591.8c0,0-0.8-2.5,0.1-2.5s1.4,0.9,1,1.3s0.7-0.7,1.3,0C190.4,591.2,191,593,187.3,591.8z"/>
		<path class="st0" d="M361.1,685.2c0,0,1.4-0.3,1.4-1.6c0-1.4,0.5-2.1,1.4-1.1c1,0.9,1.8,2.5,1.9,3.5s-1,3.8-2.3,3.8
			c-1.3,0-0.5-2.2-0.8-2.5C362.2,686.8,361.1,686.5,361.1,685.2z"/>
		<path class="st0" d="M348.6,689.2c0,0,0.1-2.2,1.3-2.8c1.2-0.5,2.1,0.3,1.6,0.7S350.6,690.1,348.6,689.2z"/>
		<path class="st0" d="M336.5,708.4c0,0,0.3-2.4,1.2-2.4c0.8,0,2,0.2,2,1.9s0.9,4.7,0,5.2s-2.2-0.3-2.7,0.2
			c-0.5,0.5-0.1,1.5-0.8,1.5s-0.7-2.7-0.3-3.1s1.8-0.2,1.8-1.3C337.7,709.3,336.5,709.8,336.5,708.4z"/>
		<path class="st0" d="M314.3,700.9c0,0,2.9-1,3.4,0.2c0.5,1.2-0.4,2.3-1,2.5c-0.7,0.3,0.1-1.1-0.6-1.1S314.3,701.8,314.3,700.9z"/>
		<path class="st0" d="M318.3,704c0,0,2.8-1.5,3.8-0.9c1,0.6-0.1,3-1.4,3.5s-1.9,0.3-1.7-0.5C319.2,705.2,317.8,705.2,318.3,704z"/>
		<path class="st0" d="M313.8,713.9c0,0,3.7-1,4.1,0.2c0.4,1.2-0.9,2.7-1.2,2.7s-0.1-1.7-0.8-1.7S313.2,715.3,313.8,713.9z"/>
		<path class="st0" d="M319,716.5c0,0,0.7-1,2-1s1.9,0.3,1.2,1C321.6,717.2,318.8,718.2,319,716.5z"/>
		<path class="st0" d="M315.3,728.4c0,0-0.5-2.3,0-2.8s1.8,0.2,1.8,0.6s0.8,0,1.1,0.4c0.4,0.4,0.7,1.3-0.4,1.3
			C316.8,727.9,316.2,729.6,315.3,728.4z"/>
		<path class="st0" d="M319.5,723c0,0-0.9-3.8,0.3-4c1.3-0.2,1.3,1,2,1c0.7,0,3.1-1.1,3.8,0.1c0.7,1.2,1.1,2.3,0,2.6
			c-1.1,0.3-3.4-0.6-4.1-0.3C320.8,722.6,320.5,724,319.5,723z"/>
		<path class="st0" d="M328.1,719.2c0,0,0.9-1,1.8-0.5s0.5,1,0.8,1s1.5,1.2,0.7,1.5s-1.8,0.9-1.8-0.2S327.9,720.5,328.1,719.2z"/>
		<path class="st0" d="M296.1,694.5c0,0-3.4-0.7-4.8,0.8c-1.4,1.4-2.2,3.3-2.2,3.3s-0.3,2-1,2s2.7,3.7,2.7,5c0,1.3,1.8,6.6,4,6.6
			s0.5-3.1,1-3.3s2.5-0.8,2.8,0.5s-0.8,2.8,0.2,3.3s4-0.2,4.6,0.8s0.6,1.7,1.5,1.7s1.7,0,1.7-1.1s-0.4-5.7,0.3-6.4s1.2-2.3,0.4-3.1
			s-1.6-1.6-3.6-1.6s-2.8,0.6-3.2,1s-1.7,1.8-2,1.1c-0.3-0.7,0.1-1.9-0.7-2.1c-0.8-0.2-2-1.8-2-3.4c0-1.7,0.2-2.2,1.2-2.5
			S297.3,694.8,296.1,694.5z"/>
		<path class="st0" d="M301.2,697.1c0,0,0.8-3,2.3-2.8s1.7,1.7,1.4,2s-1.1,0.3-1.1,1.1c0,0.8-0.5,1.9,0.3,1.9c0.8,0,1.3-1.6,1.8-1.2
			c0.4,0.4,1.9,0.8,1.9,2s0.8,2.5-0.6,2.3s-2.5,0-3.7-1.2c-1.2-1.2-2,0.9-2.7-0.6C300,699,300.6,697.8,301.2,697.1z"/>
		<path class="st0" d="M287.5,739.4c0,0-1.8-1.5-0.5-2s2.8,0.3,2,1C288.3,739.1,288.7,739.8,287.5,739.4z"/>
		<path class="st0" d="M274.6,726.1c0,0,1.2-0.5,1.2-1.4s0.3-1.5,0.8-1.5s1.4,0.5,2.3,0.9c1,0.3,2.2,1.6,2.2,2.2s-1.4-0.4-1.8,0
			c-0.4,0.4-0.2,1.2-0.8,1.2c-0.6,0-1.3-0.8-1.6-1.1C276.5,726.1,274.9,727.4,274.6,726.1z"/>
		<path class="st0" d="M279.5,727.9c0,0,3.5-0.8,4.5,0.2s1.7,1.7,1.7,2.8s0.7,1.9,1,2.3s0.4,1.3-0.5,1.3c-1,0-3.2-3.8-4.3-4.2
			S278.7,729.8,279.5,727.9z"/>
		<path class="st0" d="M173.3,727c0,0,0.1-2.2-1.7-3.3c-1.8-1.1-1.1-2.2,0-2.2s4.9,3.4,4.9,4.3s2.1-0.4,3.2,0.7
			c1.1,1.1,1.8,3.1,2.5,3.9s0.9,1.4,0.4,1.9s-1.6-0.6-1.9,0.7s0.6,3.5-0.4,4c-1.1,0.5-3.9-1-4.9,0s-1.3,2.8-3.3,2.8
			s-3.8,2.3-5.4,3.1c-1.6,0.8-4.1-1-4.1-1.9s1.7-1.1,1.4-2.6c-0.3-1.4-1.8,0.8-2.8-0.1s-2.3-2.3-1.2-3.4c1.1-1.1,2-3.2,3.6-3.2
			s2.7-2.3,4.4-1.9s0.4-3.8,1.6-3.8s1.5,1.3,2.3,1.3S173.3,727,173.3,727z"/>
		<path class="st0" d="M175.4,742.2c0,0-0.3,1.4-1.4,0.9c-1.1-0.5-1.5-2.5-0.5-2.5s1.6-1.1,1.9-1.3s1.3-0.1,1.3,1.1
			S176.1,742.2,175.4,742.2z"/>
		<path class="st0" d="M261.4,707.3c0,0-1.1-2.3,0-2.6s2.6,1.3,1.9,2C262.5,707.4,262.8,707.8,261.4,707.3z"/>
		<path class="st0" d="M267.8,723c0,0-0.6-2.3,0.8-2.3s1.4,1.8,1.9,2.3s0,1.4-1.4,1.1C267.6,723.8,267.9,723.6,267.8,723z"/>
		<path class="st0" d="M262.2,733.5c0,0-1.7-0.7-0.8-3.5c0.9-2.8,2.1-3.1,2.1-1.3s1.4,1.8,1.4,3.6
			C264.8,734.1,263.5,733.5,262.2,733.5z"/>
		<path class="st0" d="M262.5,734.4c0,0,0,5.1,2.3,5.1s2.8,0.8,2.8-1.2s0.1-2.3-0.8-3.2s-1.2-1.2-2-0.3
			C264,735.7,264,734.4,262.5,734.4z"/>
		<path class="st0" d="M235.8,735.7c0,0-1-2.1,0-3.2s1.8,0.6,2.9,0.6c1.1,0,1.8-0.9,3.5-0.9s4,1.5,2.8,2.7c-1.2,1.2-1.7,1.6-1.7,2.8
			s-1.2,0.7-2.1,0.7c-0.9,0-0.9-1.3-1.8-1.3C238.6,737,236.2,737.2,235.8,735.7z"/>
		<path class="st0" d="M246,740.8c0,0-1.5-1.3-0.9-2.4c0.6-1,2,0.6,2,1.2s0.7,1.6,1.2,1.2c0.5-0.5,1.6-0.3,1,0.8
			c-0.6,1-0.3,1.5-1.6,1.1C246.5,742.3,245.6,742.3,246,740.8z"/>
		<path class="st0" d="M230.2,736.7c0,0-1.3-1-0.4-2c1-1,2.7,1.4,2.7,2.8s-0.7,2-1.5,2C230.2,739.4,229.5,737.3,230.2,736.7z"/>
		<path class="st0" d="M252.4,752.3c0,0-1-3.5,0.3-3.5s1.3,1.7,2.1,1.7s-0.4,2.7-1.4,2.2C252.4,752.3,252.4,752.3,252.4,752.3z"/>
		<path class="st0" d="M248.2,773.9c0,0-0.2-3.3,0.7-4.2c0.8-0.8,2.1,2.2,1.7,2.7c-0.5,0.5,0.8,0.4,0.8,1.8c0,1.4-1.5,2.3-1.9,1.9
			C249.1,775.8,248.2,776,248.2,773.9z"/>
		<path class="st0" d="M244.4,756.8c0,0-0.4-3.9,1-3.9s2.3,0.4,2.3,1.9s-1.3,1.1-1.3,1.9C246.4,757.6,244.4,758.2,244.4,756.8z"/>
		<path class="st0" d="M216.5,759.4c0,0,0.6-3.4,2.6-3.4s1,2.1,2.3,2.7c1.3,0.6,2.3,6.1,0,5.3s-0.6-1.7-3.1-2.1
			S216.5,759.4,216.5,759.4z"/>
		<path class="st0" d="M228.1,743.8c0,0-0.3-2.7,1.8-2.2s0.2,1.5,1.8,1.8s3,2,2,3s-2.5,1.2-3.1,0.6s0.1-1.9-0.4-1.9
			S227.9,745.4,228.1,743.8z"/>
		<path class="st0" d="M218.1,776.3c0,0,2,0.8,2-0.8s1.7-1,1.7,0s-0.3,2.8-1.8,2.8C218.3,778.3,217.5,777.7,218.1,776.3z"/>
		<path class="st0" d="M223.6,746.3c0,0,0.1-1.7,1.1-1.7s0.3-1.5,1.8,0s2.2,2.4,1.8,2.9s-1.9,1-3.2,1s-0.8-1.5-0.8-1.5
			S223.4,747.1,223.6,746.3z"/>
		<path class="st0" d="M207.1,760c0,0-0.1-0.7,0.7-1.4s0.9-1.4,1.6-2.1c0.7-0.7,1.3,0.9,1.3,1.8s-1.1,0.7-1.8,1.3
			C208.2,760.2,207.1,761.2,207.1,760z"/>
		<path class="st0" d="M204.7,739.2c0,0,1.9-0.2,2.3,1.7s-0.3,2.3,0.4,3s2.7,2.1,3.1,4.2c0.4,2.1-2.3,1.4-2.9,1.4s-2.9,0.9-2.9-0.6
			s0.4-3-1.1-3s-2.8,0.6-2.4-0.9c0.4-1.5,0-2.8,0.9-3.7C203,740.3,203.2,739.2,204.7,739.2z"/>
		<path class="st0" d="M210.6,743.3c0,0-0.3-2.8-1.3-2.8s-0.9-3,0.7-3c1.6,0,1.8,0.2,2.6-0.6c0.8-0.8,1.5-1.3,2-0.7
			c0.5,0.5,1.4,0.9,1.4,2c0,1,0.7,3.1-0.8,3.1s-2.4,0.7-2.8,1C211.9,742.6,212.1,743.9,210.6,743.3z"/>
		<path class="st0" d="M211.2,745.3c0,0,2.3,1.3,2.9,0c0.6-1.3,1-2.5,2.3-1.9c1.3,0.6,2.8,2.6,3.4,2c0.6-0.6,0.9,1.2,0,2
			c-0.9,0.8-2,1.4-3.8,1.4s-2.7-2-3.8-2S210.8,745.8,211.2,745.3z"/>
		<path class="st0" d="M217.9,740.9c0,0-0.6-1.3,1.3-1.3s3.8,0.2,4.4,0.8c0.6,0.7,0.8,1.1,1.3,1.1c0.5,0,0.3,1.8-2.1,1.8
			c-2.4,0-2.2,0.9-3.2-0.2C218.5,742.3,217.9,740.9,217.9,740.9z"/>
		<path class="st0" d="M197.5,752.5c0,0,0.5-1.3,1-0.9c0.5,0.5,0.8,1.9,1.3,1.9s0.6,1.7-0.4,1.4s-1.9-0.4-1.9-1.1
			S197.5,752.5,197.5,752.5z"/>
		<path class="st0" d="M201.6,760c0,0-0.8-1.9,0-2.7c0.8-0.8,2.4,0.1,2.4,1.2c0,1.1-1.1,1-1.1,2.1s0.5,2,0,3.1s-0.8,1.4-1.6,0.6
			c-0.8-0.8-1.2-1.4-0.7-2.5S201.6,760.9,201.6,760z"/>
		<path class="st0" d="M196.6,765.4c0,0,1-1.5,1.8-0.7s1.6,1.3,1,1.8s-1.2,1.1-1.9,0.4C196.8,766.2,196.6,765.4,196.6,765.4z"/>
		<path class="st0" d="M186.3,756.9c0,0,2-1.1,2.8-0.4c0.7,0.7,0.8-0.8,1.1-1.1s2,1.6,1.3,2.4c-0.8,0.8-1.5,1.8-2.8,1.3
			S185.8,758.2,186.3,756.9z"/>
		<path class="st0" d="M193.3,757.3c0,0-1.6-2.6,0-3.1s3.2-0.3,3.6,1.1c0.4,1.4,2.7,0.2,2.7,0.9c0,0.7-0.4,2.4-2.1,2.4
			S193.3,758.1,193.3,757.3z"/>
		<path class="st0" d="M189.7,761.5c0,0,2.5-1.8,2.5-2.8s4.2,2.5,4.9,1.8c0.7-0.7,0.1,2.3-1.4,2.3s-3.2-0.2-3.2,0.7
			S189.7,761.5,189.7,761.5z"/>
		<path class="st0" d="M171.6,777.3c0,0-0.5-1.3,0.5-1.5s3.3,0.4,2.8,1.5c-0.5,1.1-0.8,2.6-1.4,2S172.6,777.3,171.6,777.3z"/>
		<path class="st0" d="M83.2,764.9c0,0-0.6-2,1.4-2s3.7,2,3.3,2.4s-0.1,1.1-1.8,1.1S83.9,765.6,83.2,764.9z"/>
		<path class="st0" d="M155.1,748.9c0,0-1.7-2.3-0.4-3s5.3,1.3,5.3,2.4s-1.7,1.2-2.4,0.5C156.9,748.2,156.5,749.5,155.1,748.9z"/>
		<path class="st0" d="M140.3,755.4c0,0-0.6-1.1,0-1.8s1,0.6,1,0.9s1-0.2,1,0.3C142.3,755.4,141.4,756.6,140.3,755.4z"/>
		<path class="st0" d="M147,754.4c0,0-1.5-2.5,0-2.9c1.5-0.5,1.1,1.5,1.7,1.5S148.5,754.4,147,754.4z"/>
		<path class="st0" d="M161.9,750.2c0,0,0.6-1.5,1.8-0.9c1.3,0.6,1.1,1.6,0,1.6S161.9,751.3,161.9,750.2z"/>
		<path class="st0" d="M165.4,753.2c0,0-0.4-1.1,1-1.7c1.4-0.6,1.9-0.7,1.5,0.8C167.4,753.8,165.9,753.7,165.4,753.2z"/>
		<path class="st0" d="M147.6,761.8c0,0-0.9-2.4,0-3.2s1.9,2,1.3,2.6C148.3,761.7,148.4,762.5,147.6,761.8z"/>
		<path class="st0" d="M151.4,752.9c0,0-1.6-3.1-0.7-4s2.2,0.1,2.2,1.2s-0.9,1.4-0.9,1.4S152.6,752.9,151.4,752.9z"/>
		<path class="st0" d="M154.2,752.9c0,0,1.1,0.8,1.1,0s0.3-1,0.8-1s0.6-0.9,1-0.9s0.9,2-0.2,2.6S154.2,755.2,154.2,752.9z"/>
		<path class="st0" d="M151.4,743.8c0,0,2.4-0.7,2.8-2.6s1.7,1.6,2.4,2.3C157.3,744.2,151,746.2,151.4,743.8z"/>
		<path class="st0" d="M155.2,738.3c0,0-0.1-0.9,0.7-0.9c0.8,0,0.6-1.3,1.2-1.3s1.6,1.5,0.9,2.2C157.3,739,155.2,739,155.2,738.3z"
			/>
		<path class="st0" d="M172.4,698.1c0,0-0.4-2.1,0.6-2.1s2.6,0.3,2.6-1.2s-0.3-2.1,0.7-2.1s2.3,0.9,2.3,3.5s1.7,1,2.3,1.5
			s0.1,2.4-0.8,2.4s-1.8-1.4-2.5-1.4S172.4,699.7,172.4,698.1z"/>
		<path class="st0" d="M99.8,737.5c0,0-1.3-2.2,0-2.2s1.8,1.9,2.6,1.1C103.2,735.5,101.4,739.1,99.8,737.5z"/>
		<path class="st0" d="M93.5,712.3c0,0-0.1-0.7-1.3-1.9s1.3-1.4,1.3-2.8s2.5-2.5,2.5-0.9S96.1,712.3,93.5,712.3z"/>
		<path class="st0" d="M109.4,716.6c0,0-2.8-3.4-1.9-4.3s2.4-2.5,3.9-2.5s4.3,0.4,3.3,1.5s-3.5,1.6-3.5,2.9S110.4,717.6,109.4,716.6
			z"/>
		<path class="st0" d="M105,712.3c0,0-1.2-1.3,0-2.5s2.3-0.8,2.3,0s-1.4-0.4-1.4,0.9S106.4,713.7,105,712.3z"/>
		<path class="st0" d="M111.1,707.2c0,0-2.5-1.2-0.6-3.1S111.9,707.2,111.1,707.2z"/>
		<path class="st0" d="M113.1,708c0,0-0.7-3.1,0.8-3.1s0.9,1.2,1.6,1.2s0.1,1.8-0.6,1.1C114.2,706.5,113.2,708.9,113.1,708z"/>
		<path class="st0" d="M155.9,733.5c0,0-1.1-2.5-0.3-3.8c0.8-1.3,2-0.5,2-1.2s1.9,1,1.4,2.1C158.4,731.6,156.8,734.3,155.9,733.5z"
			/>
		<path class="st0" d="M138.3,719.2c0,0,4-0.4,4-2s1.9,1.4,1.3,2.7s-1.6,2.8-2,1.8C141.1,720.6,138.3,721.3,138.3,719.2z"/>
		<path class="st0" d="M155,654c0,0-2.4-1.4-1.1-2.1s2.7-0.3,2.7,1.1S155,654.7,155,654z"/>
		<path class="st0" d="M154.2,676.8c0,0-1-1.5,0-1.5s1.7,1,2,0.8s0.3,2.8-0.5,2.8S154.6,677.1,154.2,676.8z"/>
		<path class="st0" d="M151.1,696.5c0,0,6.7-4.2,7.1-6.1c0.4-1.9,3.6,3.4,1.3,5.8S151.1,698.3,151.1,696.5z"/>
		<path class="st0" d="M144.6,706.4c0,0,1.6-3,2.9-3c1.3,0,3.3-0.1,3.3-1s3-1.4,3-0.6s-1.6,1.7-1.6,2.8s-1.6,0.6-2.3,1.3
			s-0.8,1.4-1.5,2.1c-0.7,0.7-1.3,1.7-2,1C145.8,708.2,143.8,707.8,144.6,706.4z"/>
		<path class="st0" d="M147.8,712.6c0,0,2.5-4.2,3.7-4.2c1.2,0,3,3.2,2.6,4.2s-3.4,1.6-3.4,2.3S147.8,714,147.8,712.6z"/>
		<path class="st0" d="M148.4,717.2c0,0,1.9-1.7,3-0.5s1.5,2,0.5,2s-2.8,0.4-2.8,0S149,717.9,148.4,717.2z"/>
		<path class="st0" d="M150.4,723.1c0,0-0.7-1.1,0-1.8s0.6-1.4,1.6-1.4s1,1.6,0.5,2.1C152,722.4,151.7,723.1,150.4,723.1z"/>
		<path class="st0" d="M155.2,709.6c0,0-1.1-2,0.1-2s1.4,1.6,1.9,1.6s0.3,1.7-0.4,1.7S154.9,710.8,155.2,709.6z"/>
		<path class="st0" d="M156.7,716.3c0,0-0.9-1.6,0-1.6s1.5,0.3,1.5,1.1S157,717,156.7,716.3z"/>
		<path class="st0" d="M164.8,704.8c0,0-4.8-3.3-4.8-4.9s3.9-3.6,4.3-4.6s1.6,1.8,0.8,2.6s-2.5,2.7-2,3.2
			C163.6,701.5,166.6,704.3,164.8,704.8z"/>
		<path class="st0" d="M159.6,705.3c0,0,1.8-0.5,2.3,0s1.4,0.3,2.2,1s1.3,0.1,2,0.8c0.7,0.7,0.3,2.1,0.9,2.6c0.5,0.5,0.4,1.1,0,1.5
			s-0.7,1.4-1.5,1.1s-1.2-1.6-2-1.6s-1.8-0.3-1.8-1.6s-2.1-0.8-2.1-1.6S158.8,705.5,159.6,705.3z"/>
		<path class="st0" d="M162.5,719.3c0,0-0.3-2.5,0.6-3c0.8-0.5,0.7-1,1.7-1.3s1.8,1.7,2.2,1.3c0.4-0.4,1.1,1.3,0.5,1.9
			s-1.6-0.5-2.4,0.3C164.3,719.3,163.1,720.3,162.5,719.3z"/>
		<path class="st0" d="M155.3,722.3c0,0,1.4-0.1,1.4-1.4s0.5-2.2-0.6-2.2c-1.2,0-1.8-0.2-1.8,1s0.1,1.4,0.4,1.8
			C155.1,721.9,154.7,722.3,155.3,722.3z"/>
		<path class="st0" d="M157.5,727.2c0,0-1.4-1-0.8-2.2c0.6-1.2,0.2-1.9,1.2-2.3c0.9-0.4,0.2-2.2,0.6-2.7s1.3-1.5,1.1-2.3
			s1.6,0.1,1.2,2.8c-0.4,2.7-0.4,3.7-1.2,4c-0.8,0.3-0.5,2-0.9,2C158.3,726.5,158.5,727.6,157.5,727.2z"/>
		<path class="st0" d="M161.5,681c0,0,0-1.3-2-1.3s-1.6-3.3,0-4s2.3-3.7,3.8-3.7s3.3-1.1,3.3,0s-1.7,1.3-1.7,2.9
			c0,1.6-1.5,3.7-1.5,4.3C163.3,679.9,162.7,681.5,161.5,681z"/>
		<path class="st0" d="M166.5,688.1c0,0-1.6,0.8-2.4,0s-0.1-1.6-0.8-2.3c-0.6-0.7-1.5-2.7,0-2.7s3.2,0.4,3.2,1.5
			C166.5,685.8,167.3,687.8,166.5,688.1z"/>
		<path class="st0" d="M164.1,660.8c0,0-0.4-1.1,0.6-1.1c1,0,0.3-1.3,1.1-1.3c0.8,0,1.7,2.4,1.1,2.4
			C166.2,660.8,164.1,661.8,164.1,660.8z"/>
		<path class="st0" d="M163.3,667.3c0,0,0-1,0.7-1.7c0.7-0.7,1.4-0.1,1.4,0.8C165.4,667.3,164,668,163.3,667.3z"/>
		<path class="st0" d="M176.7,665.3c0,0-0.4-1.4,0.6-2.4s2.1,1,2.1,2.4c0,1.4-1.1,1.5-1.1,2.3s-1.7,1.4-1.7,0.3
			C176.6,666.8,175.7,666.2,176.7,665.3z"/>
		<path class="st0" d="M161,626.3c0,0,1.3-1.1,1.3-1.9s3,0.4,2,1.3c-1,1-2,2-2,2.5S159.9,627.4,161,626.3z"/>
		<path class="st0" d="M173.4,632.8c0,0,0.3-1.1,1.3-1.1s1.5-1.2,1.5-2.2s0.5-1.1,1.6,0c1.1,1.1,2.1,1.6,1.2,2.6c-1,1-3,0.5-3.4,1.6
			s-0.8,2.9-1.5,2.2C173.3,635.2,172.9,633.4,173.4,632.8z"/>
		<path class="st0" d="M182.6,614.7c0,0-1.4-0.9-0.3-2c1.1-1.1,0.9-1.1,1.6-1.1s0.4,2.1,0,2.1S183.6,614.7,182.6,614.7z"/>
		<path class="st0" d="M194.2,602.1c0,0,0.7-1.4,1.5-0.6c0.8,0.8,0.5,2.3,0,2.3S195.2,602.5,194.2,602.1z"/>
		<path class="st0" d="M188.1,620.3c0,0,0.1-1.4,1.8-1s0,0.9,0,1.6S188.1,621.2,188.1,620.3z"/>
		<path class="st0" d="M186.6,615.5c0,0-1.5-1.6,0-2s1.1,0.1,1.5,1.1S187.3,615.5,186.6,615.5z"/>
		<path class="st0" d="M189.1,614.5c0.1-0.1,1.1-0.4,1-1.3c-0.2-1-1.4-1.1-0.5-1.5c0.9-0.4,1.7-0.7,2.5-1.9c0.8-1.2,2.6,1.4,1.5,1.9
			s-2.1,0-2.1,0.8s1.8,0.7,1.2,1.3c-0.6,0.7-3.6,2-3.6,0.9"/>
		<path class="st0" d="M185.6,609.3c0,0-0.9-1.3-0.4-1.8s1.3,0.1,1.3,0.9c0,0.8,0.7-0.5,0.8,0.2s-0.1,2.2-0.5,1.8
			C186.3,610.1,185.8,609.3,185.6,609.3z"/>
		<path class="st0" d="M183.5,610.5c0,0-0.8-1.4-0.4-1.8c0.4-0.4,0.9,0,0.9,0.6C184,609.9,184.6,610.5,183.5,610.5z"/>
		<path class="st0" d="M196.9,594.5c0,0-1.7,0.1-0.7-0.8c0.9-0.9,1.4-0.5,1.9,0C198.5,594.2,198.3,594.9,196.9,594.5z"/>
	</g>
</g>
<path class="st0" d="M222.7,458.1c0,0-0.4-0.4-0.8-0.6c-0.4-0.2-0.6-0.4-0.7-0.5c-0.1-0.1,0,0.2-0.5-0.4c-0.5-0.6-1-1.5-1.3-1.4
	c-0.3,0.1-0.4,0.1-0.3,0.3s0,0.4,0.1,0.5c0,0.1,0.3,0.4,0.1,0.9c-0.2,0.5-0.6,0.4-0.5,0.6c0,0.3,0,0.5,0,0.5l-0.7,0.4l-0.4,0.5
	l-0.1,0.1c0,0-0.2,0.1,0,0.3s-0.1,0.5-0.1,0.5s-0.1,0.1-0.4,0.2c-0.3,0.1-0.3,0.4-0.3,0.4s0,0.1,0.2,0.3c0.3,0.2,0.5,0.3,0.5,0.3
	s0,0.1,0.3,0.3c0.3,0.1,0.5-0.1,0.5,0c0.1,0.1,0.4,0.3,0.4,0.3l0.1,0.4c0,0,0.1,0.3,0.2,0.3c0.2,0,0.1-0.2,0.4-0.5
	c0.3-0.4,0.6-0.3,0.8-0.2c0.2,0.2,0.2,0.1,0.5,0.3c0.3,0.1,0.5,0.3,0.5,0.4c0,0.2-0.2,0.2,0,0.4s0.2,0.4,0.2,0.5
	c0,0.1-0.1,0-0.1,0.2s0,0.5,0,0.6s-0.2,0.3-0.2,0.9c0,0.5,0.1,0.6-0.1,0.9c-0.3,0.3-0.6,0.5-0.6,0.6c0,0.1,0.1,0.2,0.4,0.4
	c0.4,0.2,0.5,0.4,0.3,0.7c-0.1,0.2-0.3,0.6-0.3,0.6s0,0.2-0.1,0.4s-0.3,0.2-0.1,0.3c0.2,0.1,0.2-0.4,0.5-0.3c0.3,0.1,0.4,0.1,0.5,0
	c0.1-0.1,0.3-0.3,0.5-0.2c0.2,0.1,0.2,0.2,0.3,0.2c0,0,0-0.1,0.3,0c0.3,0.1,0.3,0,0.3-0.2s0-0.8,0.2-0.7c0.2,0.1,0.3,0.4,0.4,0.1
	c0.1-0.3,0.2-0.5,0.2-0.5s0.1-0.1,0.3-0.2c0.1-0.1,0.3-0.1,0.4-0.2s0-0.2,0.2-0.1c0.2,0,0.3,0.2,0.4,0.2s0.4,0.1,0.5,0.3
	c0,0.2-0.3,0.4-0.3,0.5s0.1,0.2,0.1,0.4s-0.4,0,0,0.4c0.4,0.5,0.7,0.8,0.7,0.8c0,0.1-0.2,0.2,0,0.3s0.7,0.1,0.4,0.4
	c-0.2,0.3-0.6,0.4-0.3,0.6s0.7,0.1,0.7,0.3c0,0.2-0.1,0.4,0,0.5c0.1,0.1,0,0.4,0.2,0.5c0.2,0.1-0.1,0.1,0.3,0.4
	c0.5,0.3,0.5,0.4,0.8,0.2c0.3-0.2,0.1-0.3,0.4-0.3c0.3,0,0.4,0,0.5-0.2s-0.1-0.2,0-0.3c0.1-0.1,0.2-0.7,0.5-0.5
	c0.3,0.2,0.4,0.3,0.4,0.3s0.1,0,0.3,0.3c0.2,0.3-0.1,0.4,0.2,0.5c0.3,0.1,0.5-0.1,0.7-0.2c0.1,0,0.6-0.1,0.8-0.1s-0.1,0.1,0.2-0.3
	c0.3-0.4,0.1-0.2,0.3-0.4c0.2-0.2,0.4-0.5,0.5-0.5c0.1,0,0.4-0.3,0.4-0.4c0-0.1,0.2-0.3,0.2-0.3s0-0.1,0.4-0.2
	c0.4-0.1,0.3-0.5,0.5-0.5c0.3,0,0.3,0,0.3,0.2s-0.1,0.5,0.3,0.7c0.4,0.2,0.5,0.3,0.5,0.3s0.3,0.1,0.8-0.2c0.5-0.3,0.4-0.5,0.6-0.6
	c0.1-0.1,0.4-0.3,0.5,0c0,0.3,0,0.3,0,0.6s0.1,0.4,0.1,0.6s0,0.2,0,0.7s0.1,0.5,0,0.6c-0.1,0.1-0.4,0.1-0.1,0.3s0.4,0,0.4,0.1
	c0,0,0,0.2,0.4,0.5c0.4,0.3,1-0.1,1.1,0c0.1,0.1,0.4,0.2,0.6,0c0.2-0.2,0.4-0.5,0.3-0.7c-0.1-0.1,0-0.4,0-0.4s0.3-0.1,0.5,0
	c0.2,0.1,0.5,0,0.7-0.2c0.1-0.2,0.1-0.3,0.3-0.5s0.1-0.5,0.2-0.6s0.4-0.8,0.5-0.8c0.1,0,0.2-0.3,0.4-0.1c0.2,0.2,0.5,0.5,0.8,0.4
	c0.3-0.1,0.6-0.4,0.6-0.4s0.2-0.6,0.4-0.6c0.2,0,0.6,0.6,0.5,0c0-0.5-0.3-0.3,0-0.5c0.3-0.2,0-0.2,0.5-0.1s0.6-0.3,0.7-0.4
	c0.1-0.1,0.1-0.4,0.2-0.5s0.7-0.3,0.7-0.7c0-0.4-0.2-0.4,0-0.7c0.2-0.2,0.5-0.7,0.2-0.7c-0.3,0-0.5,0.1-0.8-0.1
	c-0.2-0.2-0.3-0.2-0.4-0.2s-0.4-0.4-0.3-0.5s0-0.1,0.2-0.6c0.2-0.4,0.5-1.2,0.6-1.4c0.1-0.2,0.4-0.3,0.5-0.6
	c0.1-0.2,0.3-0.8,0.3-0.8s0.4-0.2,0.6-0.2c0.2,0,0.4,0.1,0.6-0.1c0.2-0.2,0.6-0.1,0.5-0.6s-0.1-0.4-0.1-0.9
	c-0.1-0.5-0.1-1.1-0.2-1.2s-0.5-0.8-0.5-0.8s-0.8-0.1-1.2,0.1c-0.4,0.2-0.7,0.3-1.1,0.6s-0.3,0.1-0.9,0.7s-1.6,0.8-1.6,0.8
	s-1.2-0.2-1.2-0.2s0.1-0.5,0.1-0.6s-0.2-0.6-0.2-0.9s0.4-0.4,0.6-0.9c0.2-0.5,0.2-0.7,0.2-0.7s0.2-0.1,0.4-0.4s0.4-0.3,0.2-0.7
	c-0.2-0.4,0.4-0.4,0.1-0.9c-0.3-0.5,0.1-1-0.4-1.2c-0.5-0.2-0.7-0.2-0.7-0.3c0-0.1,0-0.4,0.2-0.8c0.2-0.4,0.2-1.1,0.2-1.2
	s-0.2-0.5-0.8-0.4s-0.5,0-0.7-0.6c-0.2-0.6,0.1-0.9,0.2-1.1s0.5-0.5,0.4-0.9c-0.2-0.4-0.6-1-0.5-1.3c0-0.3,0.2-0.4,0.1-0.5
	s-0.4-0.2-0.4-0.2s-0.5-0.8-0.8-0.8s-0.6,0.2-0.8,0.3c-0.2,0-0.5-0.4-0.7-0.1c-0.2,0.2,0,0.4-0.4,0.6c-0.4,0.2-0.5,0-0.5-0.1
	c0-0.1,0-0.4-0.3-0.4s-0.1,0-0.6,0.1s-0.7-0.3-0.7-0.4c0.1-0.1-0.3-0.1-0.4-0.1c-0.1,0-0.4-0.4-0.6-0.3c-0.1,0.1-0.7,0.2-0.7,0.6
	c0,0.4,0,0.5,0,0.8s-0.4,0.5-0.5,0.5s-0.9-0.6-0.8-0.1c0.1,0.5,0,0.6,0,0.8s-0.5,0.5-0.3,0.7c0.1,0.2,0.4,0.4-0.1,0.7
	c-0.4,0.3-0.8,0.2-0.7,0.6c0.1,0.4,0.1,0.3,0.3,0.8c0.2,0.4-0.4,2.2-0.6,1.9c-0.2-0.3-0.1-0.3-0.4-0.4c-0.2-0.1-0.4-0.5-0.6-0.8
	c-0.3-0.3-0.1,0.1-0.5-0.5c-0.3-0.7,0-0.7-0.5-0.9s-0.4-0.3-0.7,0.1c-0.3,0.4-0.6,0.5-0.7,0.6s-0.4,0.2-0.8,0.4
	c-0.4,0.2-0.5,0.1-0.6,0.1c-0.1,0-0.4-0.4-0.3,0.2c0,0.6,0.2,0.7,0.2,1c-0.1,0.3-1.1,1.9-1,2.1s0.1,0.7,0.1,1s-0.1,1-0.2,1.1
	s-0.8,0.2-0.8,0.2s0,0-0.2-0.1c-0.2-0.1-0.9,0.3-0.9,0.5c0,0.2,0.2,0.7-0.4,0.9s-1,0.7-1.2,0.6C223.5,458.3,222.7,458.1,222.7,458.1
	z"/>
</svg>
