<?xml version="1.0" encoding="utf-8"?>
<!-- Generator: Adobe Illustrator 23.0.0, SVG Export Plug-In . SVG Version: 6.00 Build 0)  -->
<svg version="1.1" id="레이어_1" xmlns="http://www.w3.org/2000/svg" xmlns:xlink="http://www.w3.org/1999/xlink" x="0px"
	 y="0px" viewBox="0 0 777 638" style="enable-background:new 0 0 777 638;" xml:space="preserve">
<style type="text/css">
	.st0{fill:none;stroke:#BFBBBA;stroke-miterlimit:10;}
</style>
<path class="st0" d="M118.2,245.1c-7,3.6-3,15.2-3,15.2c0.9,2.2,6.2,7.4,1.9,16.9c-4.3,9.5-10.9,7.3-10.4,12.4s0,10,0,10l-14.2,7.5
	l-7.1,10.3l-2.8,1.8c0,0-3.8,2.6,0,5.9s-1.7,9-1.7,9s-1.6,2.8-6.8,4c-5.2,1.3-5.7,8.2-5.7,8.2s-0.9,1.6,4.3,5.4
	c5.2,3.8,10,5.7,10,5.7s-0.5,2.9,5.2,5.2s9-1.9,10.4,0s8.1,5.2,8.1,5.2l2.8,7.1c0,0,1.4,6.2,4.8,6.6c3.3,0.5,2.8-3.3,8.5-10.4
	c5.7-7.1,10.9-6.7,15.2-3.4s3.8,2.9,10.4,5.3s10,5.3,9.5,8.6s-4.8,4.7,0,7.1s4.8,8,4.8,9.2c0,1.2-2.4,0.8-2.9,4.6s-0.9,9.5-0.5,10.9
	s-4.3,6.2-3.3,16.6s2.9,11.4-2.9,17.6s-12.3,10-12.3,11.9s1.4,3.3,8.5,8.1s9.5,8.5,6.6,13.3s-6.6,12.3-6.6,12.3s0.5,4.8-2.9,8.1
	s-5.7,3.3-1.4,6.2s4.8-7.1,10.4-5.7s7.1,2.9,10,0s5.7-6.2,9-4.3s3.3,3.3,6.6,4.8c0,0,0.9-1.4,6.6,0s5.7-1,6.2-3.8s0.5-16.1,4.8-13.8
	c4.3,2.4,5.2,7.1,7.1,1.9s3.3-9.5,3.3-9.5s2.9-2.9,5.7-4.3c2.9-1.4,5.7-2.9,7.1-4.8s0.5-3.8,3.8-2.9s5.7,3.3,7.6,4.8s8.5,2.4,9,5.7
	c0.5,3.3-5.2,7.1-5.2,9s2.9,4.8,2.9,8.1s-8.1-0.5,0.5,8.5c8.5,9,13.3,14.7,12.8,16.1c-0.5,1.4-3.7,3.3,0,6.2
	c3.8,2.8,13.3,1.9,8.5,7.1c-4.8,5.2-11.9,8.1-5.2,11.4c6.6,3.3,14.2,1.4,14.2,5.2s-1.9,7.6,0,9c1.9,1.4-0.5,7.6,3.3,10
	s-2.9,2.4,6.2,7.6c9,5.2,10,8.1,15.2,4.8s2.4-5.2,7.6-5.2s8.1,0,9-3.8s-2.9-4.8,0-6.6c2.9-1.9,4.3-13.8,10-10s8.1,6.2,8.1,6.2
	s2.4-0.5,6.2,5.2s-1.4,8.1,4.3,9.5s10.4-2.8,12.8-3.8s11.9-2.8,14.7-2.8s-1.9,2.4,4.3-5.7s1.4-4.8,6.2-8.1s7.7-10,10.3-10.4
	c2.5-0.5,7.3-5.7,8.2-7.1c1-1.4,4.3-5.2,4.3-5.2s-1-1.4,7.6-3.8c8.5-2.4,5.2-10,10.4-10s5.2-0.5,6.2,4.8s-1.9,10,5.2,13.3
	c7.1,3.3,9.5,5.2,9.5,5.2s5.2,1.4,14.7-4.8s8.5-10,11.4-12.3c2.9-2.4,8.5-5.2,9,0.5s0,6.2,0,11.4c0,5.2,1.9,7.6,2.9,11.4
	s-1,4.3,0,12.8s1.5,10.4,0.3,11.9c-1.2,1.4-8.3,2.8-1.7,6.2c6.6,3.3,7.6-0.9,8.5,2.8c0,0,0,4.5,7.6,10.4s18.5-1.9,20.9,0
	c2.4,1.9,8.1,4.3,11.4,0s7.1-10,5.7-12.8c-1.4-2.8,0.3-8.5,0.3-8.5s5.4-1.4,10.1,1c4.8,2.4,10.4,0,12.8-4.3s2.4-5.7,5.7-10.4
	s2.8-9,3.8-12.3s8.1-15.2,9.5-16.1s3.3-5.7,8.1-1.4s10,10,15.2,8.1s11.4-7.1,11.4-7.1s4.8-11.9,8.5-10.9s10.9,10.9,10.4,1
	c-0.5-10-6.6-6.6-0.5-10c6.2-3.3,0-4.8,10.4-2.9s11.4-5.2,14.2-8.1s2.8-8.5,4.3-9.5c1.4-1,12.8-5.2,13.3-13.3
	c0.5-8.1-4.8-8.5,0-12.8s9.5-14.2,4.3-13.3c-5.2,1-10,1.9-14.7-1.9s-5.7-4.3-8.5-4.8s-7.6-7.6-6.6-10.4s0.5-2.6,4.3-10.5
	c3.8-8,10-22.7,12.3-26.9c2.4-4.3,7.6-6.6,9-10.9c1.4-4.3,6.5-15.2,6.5-15.2s7.7-3.8,12.4-3.3s7.1,1.4,11.4-1.9s10.9-1.4,10.4-10.9
	s-1.4-8.5-2.8-18c-1.4-9.5-2.4-20.4-4.3-23.7s-9-16.1-9-16.1s-14.7-1.4-22.8,2.9c-8.1,4.3-13.8,6.6-21.3,12.3s-6.2,1-16.6,12.9
	s-29.9,15.6-29.9,15.6s-22.3-3.3-22.3-4.8s1.4-9.4,1.4-10.9s-3.8-11.4-3.8-16.7s8.1-7.1,12.3-17.6s4.8-12.8,4.8-12.8
	s4.3-1.4,7.1-7.6s7.6-5.7,3.8-13.8s8.1-8.1,2.4-18c-5.7-10,2.4-19-7.6-23.3s-12.8-4.3-13.3-5.7c-0.5-1.4,0-8.5,4.8-15.7
	s3.8-21.8,3.8-23.3s-3.3-10.4-15.2-7.6s-10-0.5-13.3-12.3c-3.3-11.9,1.9-18,3.8-21.3s10.4-9,7.1-16.6s-10.9-19.5-10-24.7
	c1-5.2,3.3-8.5,2.8-10c-0.5-1.4-8.1-4.8-8.1-4.8s-9.5-14.7-14.7-15.2s-11.4,4.8-14.7,5.2s-10-7.1-13.8-2.4s-0.5,7.1-7.6,11.4
	c-7.1,4.3-9.5,0-10-1.4s0-8.5-5.7-8.1s-1.4,0.5-12.3,2.4s-14.2-5.3-12.8-7.2c1.4-1.9-5.7-1.4-7.1-2.3c-1.4-1-8.5-7.6-11.4-5.2
	s-13.3,4.8-13.3,11.9c0,7.1,1,9.5,1,15.2s-8.1,9-9.5,9s-16.6-11.4-14.7-1.9s0.5,10.9,0.5,16.1s-9,10-6.6,13.8
	c2.4,3.8,7.1,8.1-1.4,13.8s-14.7,3.3-13.3,10.9c1.4,7.6,2.4,6.2,5.7,14.7c3.3,8.5-7.6,41.8-12.4,36.5s-2.8-5.7-7.6-8.1
	s-7.1-9.5-12.3-14.7s-2.4,2.4-9-10.4c-6.6-12.8,0.5-12.8-9-16.6s-8.1-5.2-13.8,2.4s-11.9,10.4-13.8,11.4s-8.1,4.3-15.7,8.1
	c-7.6,3.8-10,1.4-11.9,1.9s-7.1-8.1-6.6,3.8c0.5,11.9,4.8,14.2,3.3,19.9c-1.4,5.7-21.4,37-19.9,39.9s1.9,13.8,1.9,19
	s-1.4,18.5-3.3,21.8s-14.7,4.3-14.7,4.3s-0.5-0.5-4.8-2.4s-17.1,5.7-17.1,9c0,3.3,3.3,12.8-8.1,17.6s-19.9,12.5-22.8,12.2
	c-2.9-0.4-19-5-19-5s-7.6-6.8-15.7-11.3c-8.1-4.5-12.3-7.6-13.8-9.1c-1.4-1.5-0.5,4.6-10-7.7s-19.5-28.5-25.2-26.1"/>
</svg>
