<?xml version="1.0" encoding="utf-8"?>
<!-- Generator: Adobe Illustrator 23.0.0, SVG Export Plug-In . SVG Version: 6.00 Build 0)  -->
<svg version="1.1" id="thank" xmlns="http://www.w3.org/2000/svg" xmlns:xlink="http://www.w3.org/1999/xlink" x="0px" y="0px"
	 viewBox="0 0 926 398" style="enable-background:new 0 0 926 398;" xml:space="preserve">
<style type="text/css">
	.st0{fill:none;stroke:#000000;stroke-width:0.5668;}
	.st1{fill:none;stroke:#000000;stroke-width:0.6449;}
</style>
<g>
	<path class="st0" d="M153.1,159.19v68.54h-28.6v-68.54H102.6v-27.61h72.34v27.61H153.1z"/>
	<polygon class="st1" points="226.93,131.58 226.93,165.97 222.07,165.97 222.07,165.96 214.11,165.96 214.11,131.58 185.51,131.58 
		185.51,227.73 214.11,227.73 214.11,191.47 226.93,191.47 226.93,227.73 255.53,227.73 255.53,131.58 	"/>
	<path class="st0" d="M309.62,179.48v25.36h-8.24v22.89h-28.6v-61.14c0-11.83,3.23-21.03,9.69-27.58
		c6.46-6.55,15.53-9.83,27.23-9.83c11.27,0,19.61,2.97,25.01,8.91c5.4,5.94,8.1,15.11,8.1,27.51v62.13h-28.6v-60.23
		c0-3.76-0.45-6.36-1.34-7.82c-0.89-1.45-2.49-2.18-4.79-2.18c-4.46,0-6.69,3.33-6.69,10v11.98H309.62z"/>
	<path class="st0" d="M358.16,227.73v-62.41c0-10.94,3.28-19.7,9.83-26.27c6.55-6.57,15.27-9.86,26.17-9.86
		c10.85,0,19.15,3.19,24.9,9.58c5.75,6.39,8.63,15.57,8.63,27.54v61.42h-28.6v-61.42c0-5.87-2.09-8.81-6.27-8.81
		c-4.04,0-6.06,2.94-6.06,8.81v61.42H358.16z"/>
	<path class="st0" d="M473.68,131.58v96.15h-28.6v-96.15H473.68z M528.56,131.58l-25.36,43.6l25.22,52.55h-32.12l-21.77-53.11
		l24.65-43.04H528.56z"/>
	<path class="st0" d="M641.97,131.58l-27.19,42.76v53.39h-28.6v-53.39l-27.4-42.76h29.02l12.4,19.79l13.31-19.79H641.97z"/>
	<path class="st0" d="M692.33,129.19c13.62,0,25.3,4.96,35.04,14.86c9.74,9.91,14.62,21.77,14.62,35.57
		c0,14.04-4.91,25.97-14.72,35.78c-9.82,9.82-21.74,14.72-35.78,14.72c-13.95,0-25.85-4.93-35.71-14.79
		c-9.86-9.86-14.79-21.77-14.79-35.71c0-14.09,4.97-26.02,14.9-35.78C665.81,134.07,677.96,129.19,692.33,129.19z M691.49,157.5
		c-5.87,0-10.87,2.16-15,6.48c-4.13,4.32-6.2,9.53-6.2,15.64c0,6.11,2.08,11.32,6.23,15.64c4.16,4.32,9.15,6.48,14.97,6.48
		c5.92,0,10.93-2.15,15.04-6.45c4.11-4.3,6.16-9.52,6.16-15.67c0-6.15-2.06-11.38-6.16-15.67
		C702.42,159.65,697.4,157.5,691.49,157.5z"/>
	<path class="st0" d="M823,131.58v62.34c0,10.99-3.28,19.77-9.83,26.35c-6.55,6.57-15.27,9.86-26.17,9.86
		c-10.85,0-19.15-3.19-24.9-9.58c-5.75-6.39-8.63-15.57-8.63-27.54v-61.42h28.6v61.35c0,5.87,2.09,8.81,6.27,8.81
		c4.04,0,6.06-2.93,6.06-8.81v-61.35H823z"/>
</g>
</svg>
